<svg width="100" height="101" viewBox="0 0 100 101" fill="none" xmlns="http://www.w3.org/2000/svg">
<path d="M39.04 54.4033C38.896 54.4033 38.772 54.3713 38.668 54.3073C38.572 54.2353 38.512 54.1393 38.488 54.0193C38.472 53.8913 38.5 53.7513 38.572 53.5993L42.328 46.4353V46.9033H38.2C38.024 46.9033 37.888 46.8593 37.792 46.7713C37.696 46.6753 37.648 46.5473 37.648 46.3873C37.648 46.2193 37.696 46.0913 37.792 46.0033C37.888 45.9073 38.024 45.8593 38.2 45.8593H42.916C43.092 45.8593 43.232 45.9073 43.336 46.0033C43.448 46.0913 43.504 46.2193 43.504 46.3873C43.504 46.5313 43.484 46.6553 43.444 46.7593C43.412 46.8633 43.364 46.9793 43.3 47.1073L39.736 53.9953C39.664 54.1393 39.572 54.2433 39.46 54.3073C39.348 54.3713 39.208 54.4033 39.04 54.4033ZM47.7953 54.4273C46.8113 54.4273 46.0593 54.0553 45.5393 53.3113C45.0273 52.5593 44.7713 51.4833 44.7713 50.0833C44.7713 49.1313 44.8873 48.3353 45.1193 47.6953C45.3513 47.0553 45.6913 46.5713 46.1393 46.2433C46.5873 45.9153 47.1393 45.7513 47.7953 45.7513C48.7873 45.7513 49.5393 46.1193 50.0513 46.8553C50.5633 47.5833 50.8193 48.6553 50.8193 50.0713C50.8193 51.0073 50.7033 51.7993 50.4713 52.4473C50.2393 53.0953 49.8993 53.5873 49.4513 53.9233C49.0033 54.2593 48.4513 54.4273 47.7953 54.4273ZM47.7953 53.3953C48.4113 53.3953 48.8633 53.1273 49.1513 52.5913C49.4473 52.0473 49.5953 51.2073 49.5953 50.0713C49.5953 48.9273 49.4473 48.0953 49.1513 47.5753C48.8633 47.0473 48.4113 46.7833 47.7953 46.7833C47.1873 46.7833 46.7353 47.0473 46.4393 47.5753C46.1433 48.0953 45.9953 48.9273 45.9953 50.0713C45.9953 51.2073 46.1433 52.0473 46.4393 52.5913C46.7353 53.1273 47.1873 53.3953 47.7953 53.3953ZM55.1466 54.2833C55.0826 54.4033 54.9986 54.4833 54.8946 54.5233C54.7986 54.5633 54.7026 54.5713 54.6066 54.5473C54.5106 54.5233 54.4306 54.4753 54.3666 54.4033C54.3026 54.3313 54.2626 54.2433 54.2466 54.1393C54.2386 54.0353 54.2666 53.9233 54.3306 53.8033L58.8666 45.9193C58.9306 45.7913 59.0106 45.7073 59.1066 45.6673C59.2106 45.6273 59.3066 45.6193 59.3946 45.6433C59.4906 45.6673 59.5706 45.7153 59.6346 45.7873C59.7066 45.8593 59.7506 45.9473 59.7666 46.0513C59.7826 46.1553 59.7546 46.2673 59.6826 46.3873L55.1466 54.2833ZM54.0786 50.9233C53.4226 50.9233 52.9106 50.6953 52.5426 50.2393C52.1746 49.7753 51.9906 49.1393 51.9906 48.3313C51.9906 47.7873 52.0746 47.3233 52.2426 46.9393C52.4106 46.5553 52.6506 46.2633 52.9626 46.0633C53.2746 45.8553 53.6466 45.7513 54.0786 45.7513C54.7266 45.7513 55.2346 45.9793 55.6026 46.4353C55.9786 46.8913 56.1666 47.5233 56.1666 48.3313C56.1666 48.8673 56.0826 49.3313 55.9146 49.7233C55.7546 50.1073 55.5186 50.4033 55.2066 50.6113C54.8946 50.8193 54.5186 50.9233 54.0786 50.9233ZM54.0786 50.0713C54.3026 50.0713 54.4946 50.0073 54.6546 49.8793C54.8146 49.7513 54.9346 49.5593 55.0146 49.3033C55.1026 49.0473 55.1466 48.7233 55.1466 48.3313C55.1466 47.7473 55.0506 47.3113 54.8586 47.0233C54.6746 46.7353 54.4146 46.5913 54.0786 46.5913C53.8546 46.5913 53.6626 46.6553 53.5026 46.7833C53.3426 46.9113 53.2186 47.1033 53.1306 47.3593C53.0506 47.6153 53.0106 47.9393 53.0106 48.3313C53.0106 48.9233 53.1026 49.3633 53.2866 49.6513C53.4786 49.9313 53.7426 50.0713 54.0786 50.0713ZM59.9466 54.4273C59.2986 54.4273 58.7906 54.1993 58.4226 53.7433C58.0546 53.2873 57.8706 52.6513 57.8706 51.8353C57.8706 51.2993 57.9506 50.8393 58.1106 50.4553C58.2786 50.0713 58.5186 49.7753 58.8306 49.5673C59.1426 49.3593 59.5146 49.2553 59.9466 49.2553C60.6026 49.2553 61.1146 49.4873 61.4826 49.9513C61.8506 50.4073 62.0346 51.0353 62.0346 51.8353C62.0346 52.3793 61.9506 52.8473 61.7826 53.2393C61.6226 53.6233 61.3866 53.9193 61.0746 54.1273C60.7626 54.3273 60.3866 54.4273 59.9466 54.4273ZM59.9466 53.5873C60.1706 53.5873 60.3626 53.5233 60.5226 53.3953C60.6826 53.2673 60.8026 53.0753 60.8826 52.8193C60.9706 52.5553 61.0146 52.2273 61.0146 51.8353C61.0146 51.2593 60.9186 50.8273 60.7266 50.5393C60.5426 50.2513 60.2826 50.1073 59.9466 50.1073C59.7306 50.1073 59.5386 50.1713 59.3706 50.2993C59.2106 50.4273 59.0866 50.6193 58.9986 50.8753C58.9186 51.1313 58.8786 51.4513 58.8786 51.8353C58.8786 52.4273 58.9746 52.8673 59.1666 53.1553C59.3586 53.4433 59.6186 53.5873 59.9466 53.5873Z" fill="white"/>
<path d="M48.605 17.6273C48.5076 15.3424 50.2857 13.3869 52.5671 13.5462C58.8161 13.9826 64.8756 16.0068 70.1581 19.4574C76.6009 23.6659 81.565 29.7851 84.3545 36.9572C87.144 44.1293 87.6189 51.9946 85.7127 59.4503C83.8066 66.9059 79.6148 73.5781 73.7253 78.5312C67.8358 83.4844 60.5438 86.4701 52.8717 87.0699C45.1997 87.6696 37.5323 85.8533 30.9446 81.8755C24.3569 77.8977 19.1793 71.958 16.1377 64.8891C13.6438 59.0932 12.6885 52.7764 13.3299 46.5451C13.564 44.2702 15.7954 42.8536 18.0298 43.3413C20.2642 43.829 21.648 46.0385 21.488 48.3199C21.1705 52.8487 21.9352 57.4091 23.7452 61.6157C26.1035 67.0965 30.1178 71.7017 35.2255 74.7858C40.3331 77.8699 46.2779 79.2782 52.2263 78.8132C58.1747 78.3482 63.8284 76.0332 68.3947 72.1929C72.9611 68.3526 76.211 63.1794 77.689 57.3988C79.1669 51.6182 78.7986 45.52 76.6359 39.9593C74.4731 34.3985 70.6242 29.6541 65.629 26.3911C61.7949 23.8867 57.4331 22.3514 52.917 21.8879C50.6419 21.6544 48.7024 19.9122 48.605 17.6273Z" fill="#0CCE6B"/>
</svg>
