<svg width="270" height="180" viewBox="0 0 270 180" fill="none" xmlns="http://www.w3.org/2000/svg">
<g clip-path="url(#clip0_195_9176)">
<path fill-rule="evenodd" clip-rule="evenodd" d="M58.0401 34.7881H57.1362C57.0316 34.7879 56.9313 34.7463 56.8573 34.6723C56.7834 34.5982 56.7418 34.4979 56.7417 34.3933V33.4894C56.7417 33.271 56.9196 33.0949 57.1362 33.0949H58.0401C58.1447 33.0952 58.2449 33.1369 58.3188 33.2108C58.3928 33.2847 58.4345 33.3848 58.4349 33.4894V34.3933C58.4351 34.4452 58.4249 34.4966 58.4051 34.5445C58.3853 34.5925 58.3562 34.636 58.3196 34.6727C58.2829 34.7094 58.2393 34.7385 58.1914 34.7583C58.1434 34.7781 58.092 34.7882 58.0401 34.7881ZM54.9063 34.7881H54.0024C53.8979 34.7877 53.7977 34.746 53.7238 34.672C53.6499 34.598 53.6082 34.4978 53.6079 34.3933V33.4894C53.6079 33.271 53.7858 33.0949 54.0024 33.0949H54.9063C55.0108 33.0953 55.1109 33.137 55.1848 33.2109C55.2587 33.2848 55.3004 33.3849 55.3008 33.4894V34.3933C55.3005 34.4978 55.2589 34.598 55.185 34.672C55.111 34.746 55.0109 34.7877 54.9063 34.7881ZM51.7704 34.7881H50.8665C50.762 34.7877 50.6618 34.746 50.5879 34.672C50.514 34.598 50.4723 34.4978 50.472 34.3933V33.4894C50.472 33.271 50.6499 33.0949 50.8665 33.0949H51.7704C51.8749 33.0953 51.975 33.137 52.0489 33.2109C52.1228 33.2848 52.1645 33.3849 52.1649 33.4894V34.3933C52.1651 34.4451 52.155 34.4965 52.1352 34.5445C52.1155 34.5924 52.0864 34.636 52.0498 34.6727C52.0131 34.7094 51.9695 34.7385 51.9216 34.7583C51.8737 34.7781 51.8223 34.7882 51.7704 34.7881ZM48.6363 34.7881H47.7327C47.6281 34.7878 47.5279 34.7461 47.4539 34.6721C47.3799 34.5981 47.3382 34.4979 47.3379 34.3933V33.4894C47.3379 33.271 47.5158 33.0949 47.7327 33.0949H48.6363C48.855 33.0949 49.0329 33.2728 49.0329 33.4894V34.3933C49.0318 34.498 48.9896 34.598 48.9154 34.6719C48.8413 34.7457 48.741 34.7875 48.6363 34.7881ZM45.5025 34.7881H44.5986C44.4938 34.788 44.3933 34.7464 44.319 34.6725C44.2448 34.5985 44.2028 34.4981 44.2023 34.3933V33.4894C44.2023 33.271 44.3802 33.0949 44.5986 33.0949H45.5025C45.607 33.0953 45.7072 33.137 45.781 33.2109C45.8549 33.2848 45.8966 33.3849 45.897 33.4894V34.3933C45.8967 34.4978 45.8551 34.598 45.7812 34.672C45.7072 34.746 45.6071 34.7877 45.5025 34.7881ZM54.7914 31.3705H53.8875C53.783 31.3701 53.6829 31.3284 53.609 31.2545C53.5351 31.1806 53.4934 31.0805 53.493 30.976V30.0703C53.4934 29.9658 53.5351 29.8657 53.609 29.7918C53.6829 29.7179 53.783 29.6762 53.8875 29.6758H54.7914C55.0101 29.6758 55.1859 29.8537 55.1859 30.0703V30.9742C55.1862 31.0262 55.1763 31.0777 55.1566 31.1258C55.1369 31.1739 55.1079 31.2176 55.0712 31.2545C55.0345 31.2913 54.9909 31.3205 54.9429 31.3404C54.8949 31.3604 54.8434 31.3706 54.7914 31.3705ZM51.6576 31.3705H50.7537C50.6492 31.3701 50.5491 31.3284 50.4752 31.2545C50.4013 31.1806 50.3596 31.0805 50.3592 30.976V30.0703C50.3596 29.9658 50.4013 29.8657 50.4752 29.7918C50.5491 29.7179 50.6492 29.6762 50.7537 29.6758H51.6576C51.7621 29.6762 51.8623 29.7179 51.9361 29.7918C52.01 29.8657 52.0517 29.9658 52.0521 30.0703V30.9742C52.0524 31.0262 52.0425 31.0777 52.0228 31.1258C52.0031 31.1739 51.9741 31.2176 51.9374 31.2545C51.9007 31.2913 51.8571 31.3205 51.8091 31.3404C51.7611 31.3604 51.7096 31.3706 51.6576 31.3705ZM48.5235 31.3705H47.6196C47.5148 31.3706 47.4142 31.3291 47.34 31.2551C47.2657 31.1812 47.2237 31.0808 47.2233 30.976V30.0703C47.2233 29.8537 47.4009 29.6758 47.6196 29.6758H48.5235C48.628 29.6762 48.7281 29.7179 48.802 29.7918C48.8759 29.8657 48.9176 29.9658 48.918 30.0703V30.9742C48.918 31.1929 48.7401 31.3705 48.5235 31.3705ZM51.7704 38.4592H50.8665C50.762 38.4588 50.6619 38.4171 50.588 38.3432C50.5141 38.2693 50.4724 38.1692 50.472 38.0647V37.1608C50.472 36.9421 50.6499 36.766 50.8665 36.766H51.7704C51.875 36.7664 51.9751 36.8081 52.0491 36.8821C52.123 36.956 52.1646 37.0562 52.1649 37.1608V38.0647C52.1651 38.1165 52.155 38.1679 52.1352 38.2158C52.1155 38.2638 52.0864 38.3073 52.0497 38.344C52.0131 38.3807 51.9695 38.4097 51.9216 38.4295C51.8737 38.4492 51.8223 38.4593 51.7704 38.4592ZM48.6363 38.4592H47.7327C47.6282 38.4589 47.528 38.4172 47.454 38.3433C47.3801 38.2694 47.3383 38.1692 47.3379 38.0647V37.1608C47.3379 36.9421 47.5158 36.766 47.7327 36.766H48.6363C48.855 36.766 49.0329 36.9439 49.0329 37.1608V38.0647C49.0318 38.1693 48.9895 38.2693 48.9153 38.3431C48.8412 38.4169 48.741 38.4586 48.6363 38.4592ZM205.362 143.774H206.589C206.885 143.774 207.124 144.015 207.124 144.309V145.536C207.124 145.833 206.883 146.072 206.589 146.072H205.362C205.22 146.071 205.084 146.015 204.984 145.914C204.884 145.814 204.827 145.678 204.827 145.536V144.309C204.826 144.239 204.84 144.169 204.867 144.104C204.894 144.039 204.933 143.98 204.983 143.93C205.033 143.881 205.092 143.841 205.157 143.815C205.222 143.788 205.292 143.774 205.362 143.774ZM209.615 143.774H210.842C211.136 143.774 211.377 144.015 211.377 144.309V145.536C211.377 145.833 211.136 146.072 210.842 146.072H209.615C209.473 146.071 209.337 146.015 209.237 145.914C209.137 145.814 209.08 145.678 209.08 145.536V144.309C209.08 144.015 209.321 143.774 209.615 143.774ZM213.871 143.774H215.097C215.392 143.774 215.633 144.015 215.633 144.309V145.536C215.633 145.833 215.392 146.072 215.097 146.072H213.871C213.577 146.072 213.335 145.83 213.335 145.536V144.309C213.335 144.239 213.349 144.169 213.376 144.104C213.403 144.039 213.442 143.98 213.492 143.931C213.542 143.881 213.601 143.841 213.666 143.815C213.731 143.788 213.8 143.774 213.871 143.774ZM218.124 143.774H219.351C219.645 143.774 219.886 144.015 219.886 144.309V145.536C219.886 145.833 219.645 146.072 219.351 146.072H218.124C217.982 146.072 217.845 146.015 217.745 145.915C217.644 145.815 217.587 145.678 217.586 145.536V144.309C217.588 144.167 217.645 144.032 217.746 143.932C217.846 143.832 217.982 143.775 218.124 143.774ZM222.377 143.774H223.604C223.901 143.774 224.142 144.015 224.142 144.309V145.536C224.142 145.833 223.901 146.072 223.604 146.072H222.377C222.236 146.071 222.1 146.015 221.999 145.914C221.899 145.814 221.842 145.678 221.842 145.536V144.309C221.842 144.015 222.083 143.774 222.377 143.774ZM209.771 148.412H210.998C211.292 148.412 211.533 148.653 211.533 148.947V150.176C211.533 150.47 211.292 150.712 210.998 150.712H209.771C209.629 150.712 209.493 150.655 209.392 150.555C209.292 150.455 209.235 150.318 209.235 150.176V148.95C209.235 148.879 209.249 148.809 209.275 148.744C209.302 148.679 209.341 148.619 209.391 148.569C209.441 148.519 209.5 148.48 209.565 148.453C209.63 148.426 209.7 148.412 209.771 148.412ZM214.024 148.412H215.251C215.545 148.412 215.786 148.653 215.786 148.947V150.176C215.786 150.47 215.545 150.712 215.251 150.712H214.024C213.882 150.711 213.747 150.655 213.646 150.555C213.546 150.454 213.489 150.318 213.489 150.176V148.95C213.488 148.879 213.502 148.809 213.529 148.744C213.555 148.679 213.595 148.619 213.644 148.569C213.694 148.519 213.753 148.48 213.819 148.453C213.884 148.426 213.954 148.412 214.024 148.412ZM218.277 148.412H219.504C219.801 148.412 220.042 148.653 220.042 148.947V150.176C220.042 150.47 219.801 150.712 219.504 150.712H218.277C217.983 150.712 217.742 150.47 217.742 150.176V148.95C217.742 148.653 217.983 148.412 218.277 148.412ZM213.871 138.792H215.097C215.392 138.792 215.633 139.033 215.633 139.327V140.554C215.633 140.85 215.392 141.089 215.097 141.089H213.871C213.729 141.089 213.593 141.032 213.493 140.932C213.392 140.832 213.336 140.696 213.335 140.554V139.327C213.335 139.257 213.349 139.187 213.376 139.122C213.403 139.057 213.442 138.998 213.492 138.948C213.541 138.899 213.601 138.859 213.666 138.832C213.731 138.805 213.8 138.792 213.871 138.792ZM218.124 138.792H219.351C219.645 138.792 219.886 139.033 219.886 139.327V140.554C219.886 140.85 219.645 141.089 219.351 141.089H218.124C217.982 141.089 217.845 141.033 217.745 140.933C217.644 140.832 217.587 140.696 217.586 140.554V139.327C217.588 139.185 217.645 139.05 217.745 138.949C217.846 138.849 217.982 138.793 218.124 138.792Z" fill="#E1E4E5"/>
<path d="M189.47 155.493H46.3455C42.168 155.493 38.7804 152.105 38.7804 147.928V58.2507C38.7804 54.0735 42.168 50.6855 46.3455 50.6855H189.47C193.648 50.6855 197.035 54.0735 197.035 58.2507V147.928C197.035 152.105 193.648 155.493 189.47 155.493Z" fill="white" stroke="#E1E4E5" stroke-width="4.518"/>
<path d="M197.035 60.5702H38.7804V58.2506C38.7804 54.0734 42.168 50.6855 46.3455 50.6855H189.47C193.648 50.6855 197.035 54.0734 197.035 58.2506V60.5702Z" fill="white" stroke="#E1E4E5" stroke-width="4.518"/>
<path d="M46.0659 57.1242C46.268 57.1271 46.4686 57.0897 46.6561 57.0143C46.8436 56.939 47.0143 56.8271 47.1582 56.6852C47.3021 56.5433 47.4163 56.3742 47.4943 56.1878C47.5723 56.0013 47.6125 55.8013 47.6125 55.5992C47.6125 55.3971 47.5723 55.197 47.4943 55.0106C47.4163 54.8241 47.3021 54.6551 47.1582 54.5132C47.0143 54.3713 46.8436 54.2594 46.6561 54.184C46.4686 54.1086 46.268 54.0713 46.0659 54.0741C45.6651 54.0797 45.2827 54.2429 45.0013 54.5283C44.7198 54.8137 44.5621 55.1984 44.5621 55.5992C44.5621 56 44.7198 56.3847 45.0013 56.6701C45.2827 56.9555 45.6651 57.1186 46.0659 57.1242ZM52.1658 57.1242C52.5703 57.1242 52.9582 56.9636 53.2442 56.6775C53.5302 56.3915 53.6908 56.0036 53.6908 55.5992C53.6908 55.1947 53.5302 54.8068 53.2442 54.5208C52.9582 54.2348 52.5703 54.0741 52.1658 54.0741C51.7613 54.0741 51.3734 54.2348 51.0874 54.5208C50.8014 54.8068 50.6407 55.1947 50.6407 55.5992C50.6407 56.0036 50.8014 56.3915 51.0874 56.6775C51.3734 56.9636 51.7613 57.1242 52.1658 57.1242ZM58.4349 57.1242C59.3706 57.1242 60.129 56.4414 60.129 55.5993C60.129 54.7569 59.3706 54.0744 58.4349 54.0744C57.4989 54.0744 56.7405 54.7569 56.7405 55.5993C56.7405 56.4414 57.4989 57.1242 58.4349 57.1242Z" fill="#E1E4E5"/>
<path d="M223.357 129.4H80.2326C76.0551 129.4 72.6672 126.012 72.6672 121.835V32.1579C72.6672 27.9804 76.0551 24.5925 80.2326 24.5925H223.357C227.534 24.5925 230.922 27.9804 230.922 32.1579V121.835C230.922 126.012 227.534 129.4 223.357 129.4Z" fill="white" stroke="#E1E4E5" stroke-width="4.518"/>
<path d="M230.922 34.4772H72.6672V32.1579C72.6672 27.9804 76.0551 24.5925 80.2326 24.5925H223.357C227.534 24.5925 230.922 27.9804 230.922 32.1579V34.4772Z" fill="white" stroke="#E1E4E5" stroke-width="4.518"/>
<path d="M79.953 31.031C80.1551 31.0338 80.3556 30.9965 80.5431 30.9211C80.7306 30.8458 80.9012 30.7339 81.0451 30.5921C81.189 30.4502 81.3032 30.2811 81.3812 30.0947C81.4592 29.9083 81.4993 29.7083 81.4993 29.5063C81.4993 29.3042 81.4592 29.1042 81.3812 28.9178C81.3032 28.7314 81.189 28.5623 81.0451 28.4204C80.9012 28.2786 80.7306 28.1667 80.5431 28.0914C80.3556 28.016 80.1551 27.9787 79.953 27.9815C79.5524 27.9871 79.17 28.1502 78.8886 28.4356C78.6073 28.7209 78.4495 29.1055 78.4495 29.5063C78.4495 29.907 78.6073 30.2916 78.8886 30.5769C79.17 30.8623 79.5524 31.0254 79.953 31.031ZM86.0526 31.031C86.2547 31.0338 86.4552 30.9965 86.6427 30.9211C86.8302 30.8458 87.0008 30.7339 87.1447 30.5921C87.2886 30.4502 87.4028 30.2811 87.4808 30.0947C87.5588 29.9083 87.5989 29.7083 87.5989 29.5063C87.5989 29.3042 87.5588 29.1042 87.4808 28.9178C87.4028 28.7314 87.2886 28.5623 87.1447 28.4204C87.0008 28.2786 86.8302 28.1667 86.6427 28.0914C86.4552 28.016 86.2547 27.9787 86.0526 27.9815C85.652 27.9871 85.2696 28.1502 84.9882 28.4356C84.7069 28.7209 84.5491 29.1055 84.5491 29.5063C84.5491 29.907 84.7069 30.2916 84.9882 30.5769C85.2696 30.8623 85.652 31.0254 86.0526 31.031ZM92.3217 31.031C93.2574 31.031 94.0161 30.3485 94.0161 29.5061C94.0161 28.664 93.2574 27.9812 92.3217 27.9812C91.386 27.9812 90.6273 28.664 90.6273 29.5061C90.6273 30.3485 91.386 31.031 92.3217 31.031Z" fill="#E1E4E5"/>
<path d="M206.536 85.0906H136.472C135.108 85.0906 134.003 86.1961 134.003 87.5597C134.003 88.9234 135.108 90.0289 136.472 90.0289H206.536C207.9 90.0289 209.005 88.9234 209.005 87.5597C209.005 86.1961 207.9 85.0906 206.536 85.0906Z" fill="#E1E4E5"/>
<path d="M206.536 99.2886H136.472C135.108 99.2886 134.003 100.394 134.003 101.758C134.003 103.121 135.108 104.227 136.472 104.227H206.536C207.9 104.227 209.005 103.121 209.005 101.758C209.005 100.394 207.9 99.2886 206.536 99.2886Z" fill="#E1E4E5"/>
<path d="M195.169 70.6787H136.544C135.141 70.6787 134.003 71.8166 134.003 73.2203C134.003 74.624 135.141 75.7619 136.544 75.7619H195.169C196.572 75.7619 197.71 74.624 197.71 73.2203C197.71 71.8166 196.572 70.6787 195.169 70.6787Z" fill="#E1E4E5"/>
<path d="M209.931 55.7688H136.472C135.108 55.7688 134.003 56.8743 134.003 58.2379C134.003 59.6016 135.108 60.7071 136.472 60.7071H209.931C211.295 60.7071 212.4 59.6016 212.4 58.2379C212.4 56.8743 211.295 55.7688 209.931 55.7688Z" fill="#E1E4E5"/>
<path d="M97.5702 71.7584C98.6845 71.7584 99.5877 70.8551 99.5877 69.7409C99.5877 68.6267 98.6845 67.7234 97.5702 67.7234C96.456 67.7234 95.5527 68.6267 95.5527 69.7409C95.5527 70.8551 96.456 71.7584 97.5702 71.7584Z" fill="#E1E4E5" stroke="#E1E4E5" stroke-width="4.203"/>
<path d="M117.997 73.4425C117.303 73.3354 116.602 73.2784 115.9 73.2721C111.668 73.2415 107.635 75.0973 104.867 78.349C102.1 81.6007 100.877 85.921 101.522 90.1678" stroke="#E1E4E5" stroke-width="11.348" stroke-linecap="round" stroke-linejoin="round"/>
<path d="M118.753 74.4066C118.754 76.5427 118.333 78.6578 117.515 80.6313C116.698 82.6048 115.5 84.3979 113.989 85.9083C112.479 87.4187 110.686 88.6168 108.712 89.4343C106.739 90.2517 104.624 90.6724 102.488 90.6723V90.6723C98.1739 90.6722 94.0367 88.9585 90.9863 85.9081C87.9359 82.8577 86.2222 78.7205 86.2221 74.4066C86.2219 70.0926 87.9355 65.9552 90.9858 62.9046C94.0364 59.8543 98.1738 58.1406 102.488 58.1406C106.802 58.1406 110.939 59.8542 113.99 62.9046C117.04 65.9552 118.754 70.0926 118.753 74.4066V74.4066Z" stroke="#E1E4E5" stroke-width="11.348" stroke-linecap="round" stroke-linejoin="round"/>
<path d="M53.3517 108.971C55.036 108.971 56.4015 110.337 56.4015 112.021C56.4015 113.705 55.036 115.071 53.3517 115.071C51.6673 115.071 50.3019 113.705 50.3019 112.021C50.3019 110.337 51.6673 108.971 53.3517 108.971Z" fill="#E63946"/>
<path d="M56.91 81.184C55.132 81.184 53.6907 82.6253 53.6907 84.4033C53.6907 86.1812 55.132 87.6226 56.91 87.6226C58.6879 87.6226 60.1293 86.1812 60.1293 84.4033C60.1293 82.6253 58.6879 81.184 56.91 81.184Z" fill="#E1E4E5"/>
<path d="M82.3251 148.28C80.5471 148.28 79.1058 146.839 79.1058 145.061C79.1058 143.283 80.5471 141.842 82.3251 141.842C84.103 141.842 85.5444 143.283 85.5444 145.061C85.5444 146.839 84.103 148.28 82.3251 148.28Z" fill="#E1E4E5"/>
<path d="M55.6818 136.92L48.0915 144.51C47.8151 144.786 47.8151 145.235 48.0915 145.511C48.3679 145.787 48.8159 145.787 49.0923 145.511L56.6826 137.921C56.959 137.644 56.959 137.196 56.6826 136.92C56.4062 136.643 55.9582 136.643 55.6818 136.92Z" fill="#E1E4E5"/>
<path d="M54.9386 142.354L52.7496 144.543C52.4733 144.82 52.4733 145.268 52.7496 145.544C53.026 145.82 53.4741 145.82 53.7505 145.544L55.9395 143.355C56.2158 143.079 56.2158 142.631 55.9395 142.354C55.6631 142.078 55.215 142.078 54.9386 142.354Z" fill="#E1E4E5"/>
<path d="M63.1352 45.4151L68.0528 40.4974C68.232 40.3183 68.232 40.0279 68.053 39.8489C67.8739 39.6698 67.5835 39.6698 67.4044 39.849L62.4867 44.7666C62.3076 44.9457 62.3075 45.2361 62.4866 45.4152C62.6657 45.5943 62.9561 45.5942 63.1352 45.4151Z" fill="#E1E4E5"/>
<path d="M63.6164 41.8938L65.0345 40.4757C65.2137 40.2966 65.2137 40.0062 65.0346 39.8271C64.8556 39.648 64.5652 39.6481 64.386 39.8272L62.9679 41.2453C62.7888 41.4245 62.7888 41.7148 62.9678 41.8939C63.1469 42.073 63.4373 42.073 63.6164 41.8938Z" fill="#E1E4E5"/>
<path fill-rule="evenodd" clip-rule="evenodd" d="M117.349 146.745L108.421 118.116C107.48 115.096 110.56 112.39 113.418 113.728L140.041 126.205C143.197 127.683 142.666 132.344 139.258 133.066L128.298 135.394L124.231 146.874C123.061 150.17 118.392 150.079 117.349 146.745Z" fill="#E63946"/>
<path d="M182.798 143.787C181.582 144.489 180.028 144.072 179.326 142.856C178.624 141.641 179.041 140.086 180.256 139.385C181.472 138.683 183.027 139.099 183.728 140.315C184.43 141.53 184.014 143.085 182.798 143.787Z" fill="#E63946"/>
<path d="M216.346 74.3185C215.131 75.0203 213.576 74.6038 212.874 73.3882C212.173 72.1726 212.589 70.6182 213.805 69.9163C215.02 69.2145 216.575 69.631 217.277 70.8466C217.978 72.0622 217.562 73.6166 216.346 74.3185Z" fill="#E63946"/>
<path d="M92.1488 109.585C93.06 110.111 93.3722 111.276 92.8461 112.187C92.3201 113.098 91.155 113.41 90.2438 112.884C89.3327 112.358 89.0205 111.193 89.5466 110.282C90.0726 109.371 91.2377 109.059 92.1488 109.585Z" fill="#E1E4E5"/>
<path d="M221.328 112.908C219.183 111.669 216.44 112.404 215.202 114.549C213.963 116.694 214.698 119.437 216.843 120.675C218.988 121.914 221.731 121.179 222.969 119.034C224.208 116.889 223.473 114.146 221.328 112.908Z" fill="#E1E4E5"/>
</g>
<defs>
<clipPath id="clip0_195_9176">
<rect width="270" height="180" fill="white"/>
</clipPath>
</defs>
</svg>
