<svg width="59" height="59" viewBox="0 0 59 59" fill="none" xmlns="http://www.w3.org/2000/svg">
<path d="M34.71 25.8674C33.9544 28.8899 29.25 27.3542 27.7875 26.9399L29.1281 21.6261C30.6394 22.0649 35.49 22.6986 34.71 25.8674ZM27.1294 29.6699L25.6669 35.5442C27.4706 36.0074 33.0525 37.7867 33.8813 34.4717C34.7588 31.0105 28.9331 30.1086 27.1294 29.6699ZM52.8938 35.2761C49.6275 48.3411 36.4163 56.2874 23.3513 53.0211C10.2863 49.7549 2.34732 36.5436 5.60625 23.4786C6.38051 20.3734 7.75889 17.4512 9.66267 14.8789C11.5664 12.3065 13.9583 10.1344 16.7017 8.48652C19.4451 6.83868 22.4862 5.74742 25.6514 5.27507C28.8166 4.80272 32.0438 4.95854 35.1488 5.73361C48.1894 8.99986 56.1356 22.2111 52.8938 35.2761ZM34.6369 19.7492L35.7338 15.3617L33.0525 14.7524L31.98 18.9692C31.2731 18.7986 30.5663 18.628 29.835 18.4817L30.9075 14.1674L28.2506 13.5336L27.1538 17.8967C26.5688 17.7505 25.9838 17.6286 25.4475 17.4824L21.7669 16.5561L21.0356 19.408C21.0356 19.408 23.0344 19.8711 22.9856 19.8955C24.0825 20.1636 24.2775 20.8461 24.2288 21.4555L21.2306 33.4724C21.1088 33.8136 20.7188 34.2524 20.0119 34.1305C20.0363 34.1549 18.0619 33.643 18.0619 33.643L16.7456 36.6899L20.2069 37.5674C20.865 37.738 21.4988 37.9086 22.1325 38.0549L21.0113 42.4911L23.6925 43.1736L24.7894 38.7617C25.5206 38.9567 26.2275 39.1274 26.91 39.3224L25.8131 43.6855L28.4944 44.368L29.6156 39.9317C34.125 40.7849 37.5863 40.4436 39 36.3242C40.2188 33.0336 39 31.0836 36.5625 29.8405C38.3175 29.3774 39.6338 28.2805 39.9994 25.8917C40.4869 22.6499 38.0006 20.9192 34.6369 19.7492Z" fill="white"/>
</svg>
