<svg width="270" height="180" viewBox="0 0 270 180" fill="none" xmlns="http://www.w3.org/2000/svg">
<g clip-path="url(#clip0_195_9255)">
<path d="M199.305 74.7444C196.3 76.2348 192.312 74.3184 192.312 74.3184C192.312 74.3184 193.198 69.9864 196.205 68.4981C199.209 67.0077 203.195 68.922 203.195 68.922C203.195 68.922 202.309 73.254 199.305 74.7444Z" fill="url(#paint0_linear_195_9255)"/>
<path d="M63.8441 72.3372C68.7605 75.2838 75.8144 72.5598 75.8144 72.5598C75.8144 72.5598 74.892 65.0595 69.9726 62.1162C65.0562 59.1693 58.0052 61.89 58.0052 61.89C58.0052 61.89 58.9277 69.3903 63.8441 72.3372Z" fill="url(#paint1_linear_195_9255)"/>
<path d="M65.1 151.5C64.1059 151.5 63.3 150.694 63.3 149.7C63.3 148.706 64.1059 147.9 65.1 147.9C66.0941 147.9 66.9 148.706 66.9 149.7C66.9 150.694 66.0941 151.5 65.1 151.5Z" fill="#E1E4E5"/>
<path d="M197.714 154.278C196.13 154.278 194.846 152.994 194.846 151.41C194.846 149.827 196.13 148.543 197.714 148.543C199.297 148.543 200.581 149.827 200.581 151.41C200.581 152.994 199.297 154.278 197.714 154.278Z" fill="#E1E4E5"/>
<path d="M183.154 57.0409C181.394 57.0409 179.966 55.6137 179.966 53.8531C179.966 52.0925 181.394 50.6653 183.154 50.6653C184.915 50.6653 186.342 52.0925 186.342 53.8531C186.342 55.6137 184.915 57.0409 183.154 57.0409Z" fill="#E1E4E5"/>
<path d="M42.0654 79.5528C42.4746 81.0799 41.5684 82.6496 40.0413 83.0588C38.5142 83.4679 36.9445 82.5617 36.5353 81.0346C36.1261 79.5075 37.0324 77.9378 38.5595 77.5286C40.0866 77.1195 41.6563 78.0257 42.0654 79.5528Z" fill="#E1E4E5"/>
<path d="M91.5177 55.6362C89.4145 55.6362 87.7095 53.9312 87.7095 51.828C87.7095 49.7248 89.4145 48.0198 91.5177 48.0198C93.6209 48.0198 95.3259 49.7248 95.3259 51.828C95.3259 53.9312 93.6209 55.6362 91.5177 55.6362Z" fill="#E1E4E5"/>
<path d="M231.371 133.231C229.753 133.231 228.441 132.181 228.441 130.887C228.441 129.593 229.753 128.543 231.371 128.543C232.988 128.543 234.3 129.593 234.3 130.887C234.3 132.181 232.988 133.231 231.371 133.231Z" fill="#E1E4E5"/>
<path d="M38.6856 145.012H38.7255C38.9628 148.503 41.4627 148.557 41.4627 148.557C41.4627 148.557 38.706 148.613 38.706 152.646C38.706 148.613 35.9493 148.557 35.9493 148.557C35.9493 148.557 38.4483 148.503 38.6856 145.012Z" fill="#E1E4E5"/>
<path fill-rule="evenodd" clip-rule="evenodd" d="M86.0562 85.2351V140.787C86.0562 150.377 107.819 158.147 134.665 158.147C161.51 158.147 183.273 150.377 183.273 140.787V85.2351C183.273 75.6453 161.51 67.875 134.665 67.875C107.819 67.875 86.0562 75.6453 86.0562 85.2351Z" fill="white" stroke="#E1E4E5" stroke-width="4"/>
<path fill-rule="evenodd" clip-rule="evenodd" d="M183.273 85.2349C183.273 94.8247 161.51 102.595 134.665 102.595C107.819 102.595 86.0562 94.8247 86.0562 85.2349" fill="white"/>
<path d="M183.273 85.2349C183.273 94.8247 161.51 102.595 134.665 102.595C107.819 102.595 86.0562 94.8247 86.0562 85.2349" stroke="#E1E4E5" stroke-width="4"/>
<path fill-rule="evenodd" clip-rule="evenodd" d="M183.273 113.011C183.273 122.601 161.51 130.371 134.665 130.371C107.819 130.371 86.0562 122.601 86.0562 113.011" fill="white"/>
<path d="M183.273 113.011C183.273 122.601 161.51 130.371 134.665 130.371C107.819 130.371 86.0562 122.601 86.0562 113.011" stroke="#E1E4E5" stroke-width="4"/>
<path fill-rule="evenodd" clip-rule="evenodd" d="M166.078 52.1845C166.078 69.9877 152.676 86.6341 134.665 90.6763C116.653 86.6341 103.251 69.9877 103.251 52.1845V38.2C103.251 36.6423 103.716 35.1201 104.585 33.8276C105.455 32.5351 106.689 31.5309 108.132 30.9433L127.765 22.9219C132.187 21.1146 137.142 21.1146 141.564 22.9219L161.197 30.9433C164.15 32.1508 166.078 35.0167 166.078 38.2V52.1845Z" fill="#E63946"/>
<path d="M146.575 48.6292L132.832 62.3725L124.586 54.1264" stroke="white" stroke-width="16.625" stroke-linecap="round" stroke-linejoin="round"/>
<path d="M99.4482 114.815C101.731 114.815 103.582 112.965 103.582 110.682C103.582 108.399 101.731 106.548 99.4482 106.548C97.1654 106.548 95.3148 108.399 95.3148 110.682C95.3148 112.965 97.1654 114.815 99.4482 114.815Z" fill="#E63946"/>
<path d="M99.4482 141.93C101.731 141.93 103.582 140.079 103.582 137.796C103.582 135.513 101.731 133.663 99.4482 133.663C97.1654 133.663 95.3148 135.513 95.3148 137.796C95.3148 140.079 97.1654 141.93 99.4482 141.93Z" fill="#E63946"/>
<path d="M223.446 108.597H204.766M223.446 119.678H204.766M204.766 99.2576H217.219M204.766 129.018H217.219M204.766 89.9177H207.88M204.766 138.358H207.88M46.0452 108.597H64.7244M46.0452 119.678H64.7244M64.7244 99.2576H52.2714M64.7244 129.018H52.2714M64.7244 89.918H61.6113M64.7244 138.358H61.6113" stroke="#E1E4E5" stroke-width="12.945" stroke-linecap="round" stroke-linejoin="round"/>
</g>
<defs>
<linearGradient id="paint0_linear_195_9255" x1="187.767" y1="79.3932" x2="212.548" y2="59.7912" gradientUnits="userSpaceOnUse">
<stop stop-color="white"/>
<stop offset="1" stop-color="#EEEEEE"/>
</linearGradient>
<linearGradient id="paint1_linear_195_9255" x1="82.8698" y1="81.8223" x2="43.3098" y2="45.0657" gradientUnits="userSpaceOnUse">
<stop stop-color="white"/>
<stop offset="1" stop-color="#EEEEEE"/>
</linearGradient>
<clipPath id="clip0_195_9255">
<rect width="270" height="180" fill="white"/>
</clipPath>
</defs>
</svg>
