<svg width="20" height="21" viewBox="0 0 20 21" fill="none" xmlns="http://www.w3.org/2000/svg">
<path d="M2.40601 13.023L5.80801 9.621L8.63601 12.45L11.793 9.293L10 7.5H15V12.5L13.207 10.707L8.63601 15.278L5.80801 12.45L3.33301 14.924C4.45642 16.6149 6.18063 17.8154 8.15624 18.2823C10.1318 18.7493 12.2111 18.4477 13.9726 17.4387C15.7342 16.4297 17.0462 14.7888 17.6429 12.8484C18.2397 10.9081 18.0764 8.81341 17.1863 6.98893C16.2961 5.16446 14.7456 3.74663 12.8491 3.02274C10.9525 2.29886 8.8516 2.32307 6.97219 3.09047C5.09279 3.85787 3.57541 5.31106 2.72754 7.15556C1.87967 9.00006 1.76473 11.0979 2.40601 13.024V13.023ZM0.868008 14.581L0.858008 14.571L0.862008 14.567C0.291937 13.287 -0.0017877 11.9012 8.18577e-06 10.5C8.18577e-06 4.977 4.47701 0.5 10 0.5C15.523 0.5 20 4.977 20 10.5C20 16.023 15.523 20.5 10 20.5C5.93001 20.5 2.43001 18.07 0.868008 14.581Z" fill="white"/>
</svg>
