<svg width="59" height="59" viewBox="0 0 59 59" fill="none" xmlns="http://www.w3.org/2000/svg">
<g clip-path="url(#clip0_1447_10462)">
<path d="M7.3125 7.43991H51.1875C51.834 7.43991 52.454 7.69672 52.9111 8.15384C53.3682 8.61096 53.625 9.23095 53.625 9.87741V48.8774C53.625 49.5239 53.3682 50.1439 52.9111 50.601C52.454 51.0581 51.834 51.3149 51.1875 51.3149H7.3125C6.66603 51.3149 6.04605 51.0581 5.58893 50.601C5.13181 50.1439 4.875 49.5239 4.875 48.8774V9.87741C4.875 9.23095 5.13181 8.61096 5.58893 8.15384C6.04605 7.69672 6.66603 7.43991 7.3125 7.43991ZM36.0579 23.9978L30.0861 29.9697L24.9161 24.7973L14.5738 35.1397L18.0204 38.5863L24.9161 31.693L30.0861 36.863L39.5046 27.4445L43.875 31.8149V19.6274H31.6875L36.0579 23.9978Z" fill="white"/>
</g>
<defs>
<clipPath id="clip0_1447_10462">
<rect width="58.5" height="58.5" fill="white" transform="translate(0 0.127411)"/>
</clipPath>
</defs>
</svg>
