<svg width="21" height="21" viewBox="0 0 21 21" fill="none" xmlns="http://www.w3.org/2000/svg">
<path d="M4.29492 14.7857V10.5C4.29492 8.79502 4.97222 7.15989 6.17781 5.9543C7.3834 4.74871 9.01853 4.07141 10.7235 4.07141C12.4285 4.07141 14.0636 4.74871 15.2692 5.9543C16.4748 7.15989 17.1521 8.79502 17.1521 10.5V14.7857M17.1521 15.5C17.1521 15.8789 17.0016 16.2422 16.7336 16.5101C16.4657 16.778 16.1024 16.9286 15.7235 16.9286H15.0092C14.6303 16.9286 14.267 16.778 13.9991 16.5101C13.7311 16.2422 13.5806 15.8789 13.5806 15.5V13.3571C13.5806 12.9782 13.7311 12.6149 13.9991 12.347C14.267 12.0791 14.6303 11.9286 15.0092 11.9286H17.1521V15.5ZM4.29492 15.5C4.29492 15.8789 4.44543 16.2422 4.71334 16.5101C4.98125 16.778 5.34461 16.9286 5.72349 16.9286H6.43778C6.81666 16.9286 7.18002 16.778 7.44793 16.5101C7.71584 16.2422 7.86635 15.8789 7.86635 15.5V13.3571C7.86635 12.9782 7.71584 12.6149 7.44793 12.347C7.18002 12.0791 6.81666 11.9286 6.43778 11.9286H4.29492V15.5Z" stroke="#1D3557" stroke-width="1.5" stroke-linecap="round" stroke-linejoin="round"/>
</svg>
