<svg width="21" height="21" viewBox="0 0 21 21" fill="none" xmlns="http://www.w3.org/2000/svg">
<path d="M4.29492 14.7856V10.4999C4.29492 8.7949 4.97222 7.15977 6.17781 5.95417C7.3834 4.74858 9.01853 4.07129 10.7235 4.07129C12.4285 4.07129 14.0636 4.74858 15.2692 5.95417C16.4748 7.15977 17.1521 8.7949 17.1521 10.4999V14.7856M17.1521 15.4999C17.1521 15.8787 17.0016 16.2421 16.7336 16.51C16.4657 16.7779 16.1024 16.9284 15.7235 16.9284H15.0092C14.6303 16.9284 14.267 16.7779 13.9991 16.51C13.7311 16.2421 13.5806 15.8787 13.5806 15.4999V13.357C13.5806 12.9781 13.7311 12.6148 13.9991 12.3469C14.267 12.0789 14.6303 11.9284 15.0092 11.9284H17.1521V15.4999ZM4.29492 15.4999C4.29492 15.8787 4.44543 16.2421 4.71334 16.51C4.98125 16.7779 5.34461 16.9284 5.72349 16.9284H6.43778C6.81666 16.9284 7.18002 16.7779 7.44793 16.51C7.71584 16.2421 7.86635 15.8787 7.86635 15.4999V13.357C7.86635 12.9781 7.71584 12.6148 7.44793 12.3469C7.18002 12.0789 6.81666 11.9284 6.43778 11.9284H4.29492V15.4999Z" stroke="#E63946" stroke-width="1.5" stroke-linecap="round" stroke-linejoin="round"/>
</svg>
