<svg width="198" height="150" viewBox="0 0 198 150" fill="none" xmlns="http://www.w3.org/2000/svg">
<g opacity="0.1">
<path d="M101.15 39.1711C100.574 38.6203 99.8079 38.3129 99.0112 38.3129C98.2144 38.3129 97.4484 38.6203 96.8726 39.1711L25.6777 107.183C25.3754 107.473 25.1348 107.82 24.9707 108.205C24.8065 108.59 24.7221 109.004 24.7225 109.422L24.7109 173.254C24.7109 176.536 26.0147 179.684 28.3355 182.005C30.6563 184.325 33.8039 185.629 37.0859 185.629H74.2496C75.8906 185.629 77.4644 184.977 78.6248 183.817C79.7852 182.656 80.4371 181.083 80.4371 179.442V126.848C80.4371 126.027 80.763 125.24 81.3432 124.66C81.9234 124.08 82.7103 123.754 83.5308 123.754H114.468C115.289 123.754 116.076 124.08 116.656 124.66C117.236 125.24 117.562 126.027 117.562 126.848V179.442C117.562 181.083 118.214 182.656 119.374 183.817C120.535 184.977 122.109 185.629 123.75 185.629H160.898C164.18 185.629 167.327 184.325 169.648 182.005C171.969 179.684 173.273 176.536 173.273 173.254V109.422C173.273 109.004 173.189 108.59 173.025 108.205C172.86 107.82 172.62 107.473 172.318 107.183L101.15 39.1711Z" fill="white"/>
<path d="M189.852 94.4288L160.925 66.7552V24.7614C160.925 23.1204 160.274 21.5466 159.113 20.3862C157.953 19.2258 156.379 18.5739 154.738 18.5739H136.175C134.534 18.5739 132.961 19.2258 131.8 20.3862C130.64 21.5466 129.988 23.1204 129.988 24.7614V37.1364L107.589 15.7199C105.493 13.6007 102.376 12.3864 99.0079 12.3864C95.6512 12.3864 92.542 13.6007 90.446 15.7238L8.19093 94.421C5.78554 96.7414 5.4839 100.558 7.67272 103.072C8.22237 103.706 8.89538 104.222 9.65078 104.589C10.4062 104.955 11.2282 105.163 12.0668 105.202C12.9054 105.24 13.743 105.107 14.5286 104.812C15.3143 104.516 16.0316 104.064 16.6369 103.482L96.881 26.8033C97.4567 26.2525 98.2228 25.9451 99.0195 25.9451C99.8163 25.9451 100.582 26.2525 101.158 26.8033L181.41 103.482C182.592 104.616 184.175 105.234 185.813 105.202C187.451 105.17 189.009 104.491 190.146 103.312C192.52 100.852 192.323 96.7916 189.852 94.4288Z" fill="white"/>
</g>
</svg>
