<svg width="104" height="104" viewBox="0 0 104 104" fill="none" xmlns="http://www.w3.org/2000/svg">
<path d="M53.1282 20.5747C52.8258 20.2854 52.4234 20.124 52.0049 20.124C51.5864 20.124 51.184 20.2854 50.8816 20.5747L13.4863 56.2983C13.3275 56.4502 13.2012 56.6328 13.1149 56.8349C13.0287 57.0371 12.9844 57.2546 12.9846 57.4744L12.9785 91.0022C12.9785 92.7261 13.6633 94.3794 14.8823 95.5984C16.1013 96.8173 17.7546 97.5022 19.4785 97.5022H38.9988C39.8608 97.5022 40.6874 97.1598 41.2969 96.5503C41.9064 95.9408 42.2488 95.1141 42.2488 94.2522V66.6272C42.2488 66.1962 42.42 65.7829 42.7248 65.4781C43.0295 65.1734 43.4428 65.0022 43.8738 65.0022H60.1238C60.5548 65.0022 60.9681 65.1734 61.2729 65.4781C61.5776 65.7829 61.7488 66.1962 61.7488 66.6272V94.2522C61.7488 95.1141 62.0912 95.9408 62.7007 96.5503C63.3102 97.1598 64.1368 97.5022 64.9988 97.5022H84.511C86.2349 97.5022 87.8882 96.8173 89.1072 95.5984C90.3262 94.3794 91.011 92.7261 91.011 91.0022V57.4744C91.0112 57.2546 90.9669 57.0371 90.8807 56.8349C90.7944 56.6328 90.6681 56.4502 90.5093 56.2983L53.1282 20.5747Z" fill="white"/>
<path d="M99.72 49.5989L84.5263 35.0633V13.006C84.5263 12.144 84.1839 11.3174 83.5744 10.7079C82.9649 10.0984 82.1382 9.75598 81.2763 9.75598H71.5263C70.6643 9.75598 69.8377 10.0984 69.2282 10.7079C68.6187 11.3174 68.2763 12.144 68.2763 13.006V19.506L56.5113 8.25692C55.4104 7.14379 53.7732 6.50598 52.004 6.50598C50.2408 6.50598 48.6077 7.14379 47.5068 8.25895L4.30211 49.5949C3.03867 50.8136 2.88023 52.8185 4.02992 54.1388C4.31862 54.472 4.67212 54.7431 5.0689 54.9354C5.46568 55.1277 5.89744 55.2373 6.33791 55.2574C6.77837 55.2775 7.21833 55.2078 7.63101 55.0526C8.04368 54.8973 8.42044 54.6596 8.73836 54.3541L50.8868 14.0785C51.1892 13.7892 51.5916 13.6277 52.0101 13.6277C52.4286 13.6277 52.8309 13.7892 53.1333 14.0785L95.2858 54.3541C95.9067 54.9496 96.7384 55.2745 97.5986 55.2578C98.4587 55.241 99.2771 54.8839 99.8744 54.2647C101.122 52.9728 101.018 50.84 99.72 49.5989Z" fill="white"/>
</svg>
