<svg width="32" height="32" viewBox="0 0 32 32" fill="none" xmlns="http://www.w3.org/2000/svg">
<path d="M16.0007 2.66699C13.1717 2.66699 10.4586 3.7908 8.45818 5.79119C6.45779 7.79157 5.33398 10.5047 5.33398 13.3337C5.33398 20.5337 14.734 28.667 15.134 29.0137C15.3755 29.2202 15.6828 29.3337 16.0007 29.3337C16.3185 29.3337 16.6258 29.2202 16.8673 29.0137C17.334 28.667 26.6673 20.5337 26.6673 13.3337C26.6673 10.5047 25.5435 7.79157 23.5431 5.79119C21.5427 3.7908 18.8296 2.66699 16.0007 2.66699ZM16.0007 26.2003C13.1607 23.5337 8.00065 17.787 8.00065 13.3337C8.00065 11.2119 8.84351 9.1771 10.3438 7.67681C11.8441 6.17651 13.8789 5.33366 16.0007 5.33366C18.1224 5.33366 20.1572 6.17651 21.6575 7.67681C23.1578 9.1771 24.0007 11.2119 24.0007 13.3337C24.0007 17.787 18.8407 23.547 16.0007 26.2003ZM16.0007 8.00033C14.9458 8.00033 13.9147 8.31312 13.0376 8.89915C12.1605 9.48519 11.477 10.3181 11.0733 11.2927C10.6696 12.2672 10.564 13.3396 10.7698 14.3741C10.9756 15.4087 11.4835 16.359 12.2294 17.1049C12.9753 17.8508 13.9256 18.3587 14.9602 18.5645C15.9947 18.7703 17.0671 18.6647 18.0416 18.261C19.0162 17.8574 19.8491 17.1738 20.4352 16.2967C21.0212 15.4196 21.334 14.3885 21.334 13.3337C21.334 11.9192 20.7721 10.5626 19.7719 9.56242C18.7717 8.56223 17.4151 8.00033 16.0007 8.00033ZM16.0007 16.0003C15.4732 16.0003 14.9577 15.8439 14.5191 15.5509C14.0806 15.2579 13.7388 14.8414 13.537 14.3541C13.3351 13.8669 13.2823 13.3307 13.3852 12.8134C13.4881 12.2961 13.7421 11.821 14.115 11.448C14.488 11.0751 14.9631 10.8211 15.4804 10.7182C15.9977 10.6153 16.5339 10.6681 17.0211 10.87C17.5084 11.0718 17.9249 11.4136 18.2179 11.8521C18.5109 12.2907 18.6673 12.8062 18.6673 13.3337C18.6673 14.0409 18.3864 14.7192 17.8863 15.2193C17.3862 15.7194 16.7079 16.0003 16.0007 16.0003Z" fill="white"/>
</svg>
