<svg width="79" height="95" viewBox="0 0 79 95" fill="none" xmlns="http://www.w3.org/2000/svg">
<g clip-path="url(#clip0_1636_12286)">
<path d="M-1 64.3673C-0.494664 55.9649 1.74324 39.7116 3.97736 41.9172C6.77001 44.6743 6.69022 70.6692 10.2808 73.8201C13.8713 76.971 14.8288 46.6436 17.9406 48.219C21.0524 49.7945 21.0524 64.3673 24.643 64.3673C28.2335 64.3673 29.5899 18.0981 34.0582 25.5815C38.5264 33.0649 39.0849 29.1263 41.6382 19.2797C44.1915 9.43313 45.6977 13.3135 46.8122 20.384C48.1865 29.1027 50.0443 66.072 53.9259 66.072C64.8907 66.072 66.8137 2.0498 69.9255 2.0498C71.2537 2.04981 71.7606 11.5025 72 13.8657" stroke="#0CCE6B" stroke-width="2.21412" stroke-linecap="round"/>
<path d="M4.70338 42.2118C2.4931 39.9899 0.499943 56.3632 0 64.8277V65.709C0 75.6292 0 80.5893 1.9306 84.3783C3.6288 87.7113 6.33855 90.421 9.67146 92.1192C13.4605 94.0498 18.4206 94.0498 28.3408 94.0498H72V13.953C71.7632 11.5723 71.2617 2.04981 69.9476 2.0498C66.869 2.0498 64.9666 66.545 54.1188 66.545C50.2786 66.545 48.4407 29.3026 47.081 20.5194C45.9784 13.3967 44.4883 9.48768 41.9623 19.407C39.4362 29.3263 38.8837 33.294 34.4631 25.7553C30.0426 18.2167 28.7006 64.8277 25.1484 64.8277C21.5962 64.8277 21.5962 50.1472 18.5176 48.5601C15.439 46.973 14.4917 77.5245 10.9395 74.3503C7.38728 71.1761 7.46622 44.9892 4.70338 42.2118Z" fill="url(#paint0_linear_1636_12286)"/>
<circle cx="74.9009" cy="14.7112" r="4.42825" fill="white" stroke="#0CCE6B" stroke-width="2.21412"/>
</g>
<defs>
<linearGradient id="paint0_linear_1636_12286" x1="-0.220859" y1="47.8829" x2="72.9782" y2="49.7022" gradientUnits="userSpaceOnUse">
<stop stop-color="#E03C32" stop-opacity="0.3"/>
<stop offset="1" stop-color="#C4C4C4" stop-opacity="0"/>
</linearGradient>
<clipPath id="clip0_1636_12286">
<rect width="79" height="94" fill="white" transform="translate(0 0.319336)"/>
</clipPath>
</defs>
</svg>
