<svg width="205" height="205" viewBox="0 0 205 205" fill="none" xmlns="http://www.w3.org/2000/svg">
<path d="M67.5934 46.3435C67.5934 46.3435 42.782 60.6546 31.329 81.099C19.8761 101.543 22.6483 126.69 39.5314 144.489C56.4144 162.288 86.0138 157.982 111.766 168.34C137.517 178.697 164.852 174.555 174.886 148.664C184.92 122.773 166.495 114.464 161.413 85.5355C156.33 56.6066 126.392 15.6155 67.5934 46.3435Z" fill="#0CCE6B"/>
<path opacity="0.7" d="M67.5934 46.3435C67.5934 46.3435 42.782 60.6546 31.329 81.099C19.8761 101.543 22.6483 126.69 39.5314 144.489C56.4144 162.288 86.0138 157.982 111.766 168.34C137.517 178.697 164.852 174.555 174.886 148.664C184.92 122.773 166.495 114.464 161.413 85.5355C156.33 56.6066 126.392 15.6155 67.5934 46.3435Z" fill="white"/>
<path d="M88.2218 55.1621H63.484V88.1472H88.2218V55.1621Z" fill="#B5B5B5"/>
<path d="M85.9525 58.1855H65.7493V85.1231H85.9525V58.1855Z" fill="#0CCE6B"/>
<path opacity="0.5" d="M85.9525 58.1855H65.7493V85.1231H85.9525V58.1855Z" fill="white"/>
<path d="M57.2976 74.4043H36.2684V102.442H57.2976V74.4043Z" fill="#B5B5B5"/>
<path d="M55.3717 76.9727H38.1984V99.8704H55.3717V76.9727Z" fill="#0CCE6B"/>
<path opacity="0.5" d="M55.3717 76.9727H38.1984V99.8704H55.3717V76.9727Z" fill="white"/>
<path d="M122.945 138.06H174.681V55.1133H122.945V138.06ZM149.931 118.115H172.637V116.124H149.94V97.5928H172.645V95.581H149.94V77.455H172.645V75.4432H149.94V57.125H172.792V136.041H149.94L149.931 118.115ZM124.834 57.125H148.051V75.4432H124.834V57.125ZM124.834 77.455H148.051V95.581H124.834V77.455ZM124.834 97.5928H148.051V116.124H124.834V97.5928ZM124.834 118.115H148.051V136.049H124.834V118.115Z" fill="#B5B5B5"/>
<path d="M174.506 53.212C173.915 46.762 170.934 40.7657 166.15 36.3997C161.366 32.0337 155.122 29.6133 148.645 29.6133C142.168 29.6133 135.925 32.0337 131.141 36.3997C126.356 40.7657 123.376 46.762 122.785 53.212L122.663 54.5695H174.628L174.506 53.212ZM125.439 52.0835C126.102 47.4473 128.147 43.1185 131.307 39.6614L145.896 52.0712L125.439 52.0835ZM147.151 49.8837L133.089 37.9237C137.002 34.4841 141.95 32.448 147.151 32.1379V49.8837ZM149.653 32.1093C154.554 32.2919 159.273 34.0081 163.147 37.0159L149.653 49.6915V32.1093ZM150.753 52.0835L165.028 38.6719C168.732 42.2621 171.143 46.9782 171.885 52.0835H150.753Z" fill="#B5B5B5"/>
<path d="M103.821 81.0859C103.821 81.0859 95.9825 81.548 91.7914 81.4703C87.6003 81.3926 84.5745 80.3867 83.491 82.2472C82.4074 84.1076 82.2643 83.3348 80.4611 86.6714C78.6579 90.0079 62.0161 105.268 61.6727 107.672C61.1288 111.466 65.0583 114.177 67.2295 114.721C69.4007 115.265 81.193 103.469 81.193 103.469C81.193 103.469 79.995 122.686 79.6106 130.594C79.2263 138.502 78.9891 161.715 78.9891 161.715H119.187C119.187 161.715 118.41 142.934 118.488 139.132C118.565 135.329 122.986 116.643 122.986 116.643C122.986 116.643 122.675 124.003 123.685 126.963C124.695 129.924 131.396 136.74 135.277 135.341C139.157 133.943 137.186 128.051 136.72 123.937C136.254 119.824 136.254 107.95 136.254 100.112C136.254 92.2731 136.72 90.7071 134.005 89.7912C131.29 88.8753 126.011 87.7754 121.976 86.2216C117.94 84.6678 111.655 82.885 110.568 82.4966C109.48 82.1082 103.821 81.0859 103.821 81.0859Z" fill="#263238" stroke="#263238" stroke-width="0.711111" stroke-linecap="round" stroke-linejoin="round"/>
<path d="M30.9814 161.715H173.463" stroke="#263238" stroke-width="0.711111" stroke-linecap="round" stroke-linejoin="round"/>
<path d="M106.225 78.6784C106.225 78.6784 103.665 78.523 101.494 81.0091C99.3231 83.4951 94.1343 92.0286 93.3451 93.1122C92.556 94.1957 94.0443 93.656 95.5163 93.5006C96.9883 93.3452 101.417 92.7237 102.422 93.1122C103.428 93.5006 107.624 93.9667 109.333 95.8313C111.042 97.6958 114.84 101.883 115.384 100.795C115.928 99.7075 117.245 94.7436 117.866 91.3907C118.488 88.0379 118.954 84.7177 116.394 81.3771C113.835 78.0364 106.225 78.6784 106.225 78.6784Z" fill="#0CCE6B" stroke="#263238" stroke-width="0.711111" stroke-linecap="round" stroke-linejoin="round"/>
<path d="M105.763 74.954C105.535 78.2184 104.606 81.3953 103.04 84.2685C100.403 89.2324 101.646 98.6246 102.962 98.1707C104.279 97.7169 112.281 92.4095 113.368 89.3878C114.456 86.3661 114.219 81.8602 116.161 77.0516C118.103 72.2431 119.342 69.5117 119.342 69.5117C119.342 69.5117 107.779 74.7987 105.763 74.954Z" fill="#D9D9D9"/>
<path opacity="0.15" d="M105.763 74.954C105.66 76.6909 105.335 78.4073 104.794 80.0611C105.939 80.3966 107.131 80.5443 108.323 80.4986C112.526 80.4986 112.96 79.7748 112.96 79.7748C112.96 79.7748 112.089 86.0063 111.075 89.0484C110.49 90.8107 109.66 92.7652 109.063 94.1023C111.066 92.4954 112.886 90.7249 113.368 89.3878C114.452 86.362 114.219 81.8602 116.161 77.0516C118.103 72.2431 119.342 69.5117 119.342 69.5117C119.342 69.5117 107.779 74.7987 105.763 74.954Z" fill="black"/>
<path d="M105.763 74.954C105.535 78.2184 104.606 81.3953 103.04 84.2685C100.403 89.2324 101.646 98.6246 102.962 98.1707C104.279 97.7169 112.281 92.4095 113.368 89.3878C114.456 86.3661 114.219 81.8602 116.161 77.0516C118.103 72.2431 119.342 69.5117 119.342 69.5117C119.342 69.5117 107.779 74.7987 105.763 74.954Z" stroke="#263238" stroke-width="0.711111" stroke-linecap="round" stroke-linejoin="round"/>
<path d="M110.809 41.6611C107.934 43.5644 105.607 46.1862 104.058 49.2664C101.576 54.3121 101.732 60.9851 101.732 60.9851C101.732 60.9851 101.965 68.4351 101.576 71.3832C101.188 74.3313 104.847 76.4289 106.54 76.5066C108.233 76.5843 113.524 73.0923 116.01 72.0824C118.496 71.0724 119.191 70.9171 121.595 68.5128C124 66.1085 128.117 58.8099 128.35 54.7005C128.583 50.5912 127.88 45.7949 124.302 42.9041C120.724 40.0132 115.928 39.1014 110.809 41.6611Z" fill="#D9D9D9"/>
<path opacity="0.15" d="M104.798 75.9992C105.341 76.2745 105.93 76.4464 106.536 76.5062C108.245 76.5839 113.52 73.092 116.006 72.082C118.492 71.072 119.187 70.9167 121.591 68.5124C123.995 66.1081 128.113 58.8095 128.346 54.7001C128.514 52.3769 128.252 50.0427 127.573 47.8145C125.646 48.5323 123.95 49.7605 122.667 51.3677C119.768 54.9904 122.667 57.9099 120.213 61.8025C117.76 65.6952 113.831 67.8745 110.931 70.933C108.032 73.9915 108.728 75.9215 104.798 75.9992Z" fill="black"/>
<path d="M110.809 41.6611C107.934 43.5644 105.607 46.1862 104.058 49.2664C101.576 54.3121 101.732 60.9851 101.732 60.9851C101.732 60.9851 101.965 68.4351 101.576 71.3832C101.188 74.3313 104.847 76.4289 106.54 76.5066C108.233 76.5843 113.524 73.0923 116.01 72.0824C118.496 71.0724 119.191 70.9171 121.595 68.5128C124 66.1085 128.117 58.8099 128.35 54.7005C128.583 50.5912 127.88 45.7949 124.302 42.9041C120.724 40.0132 115.928 39.1014 110.809 41.6611Z" stroke="#263238" stroke-width="0.711111" stroke-linecap="round" stroke-linejoin="round"/>
<path d="M107.779 58.8516C107.779 58.8516 106.691 59.3954 106.691 60.0169C106.691 60.6384 107.468 60.7897 107.468 60.7897" stroke="#263238" stroke-width="0.711111" stroke-linecap="round" stroke-linejoin="round"/>
<path d="M108.323 59.084C108.323 59.084 107.235 60.3106 107.779 61.0998C108.323 61.889 109.95 61.3329 109.95 61.3329C109.95 61.3329 109.872 61.7213 110.805 61.799C111.737 61.8767 112.281 60.7114 111.737 59.9386L111.193 59.1617" stroke="#263238" stroke-width="0.711111" stroke-linecap="round" stroke-linejoin="round"/>
<path d="M109.12 54.8586C108.932 55.4188 108.564 55.8032 108.302 55.7132C108.041 55.6233 107.967 55.0958 108.151 54.5356C108.335 53.9754 108.703 53.5911 108.969 53.681C109.235 53.771 109.304 54.2985 109.12 54.8586Z" fill="#263238" stroke="#263238" stroke-width="0.711111" stroke-linecap="round" stroke-linejoin="round"/>
<path d="M109.255 53.8826C109.196 53.7378 109.109 53.6064 108.998 53.4962C108.887 53.386 108.756 53.2993 108.61 53.2413C108.465 53.1832 108.31 53.1551 108.154 53.1585C107.998 53.1619 107.844 53.1968 107.701 53.2611C106.614 53.7272 106.066 56.4463 107.235 56.9861" stroke="#263238" stroke-width="0.711111" stroke-linecap="round" stroke-linejoin="round"/>
<path d="M115.638 56.7198C115.45 57.284 115.082 57.6643 114.82 57.5784C114.558 57.4926 114.485 56.961 114.669 56.4008C114.853 55.8407 115.225 55.4563 115.487 55.5463C115.748 55.6362 115.822 56.1596 115.638 56.7198Z" fill="#263238" stroke="#263238" stroke-width="0.711111" stroke-linecap="round" stroke-linejoin="round"/>
<path d="M115.773 55.7473C115.714 55.6021 115.627 55.4703 115.517 55.3598C115.406 55.2493 115.274 55.1623 115.129 55.1042C114.983 55.0462 114.828 55.0181 114.672 55.0218C114.515 55.0255 114.361 55.0609 114.219 55.1258C113.135 55.5919 112.583 58.3069 113.753 58.8507" stroke="#263238" stroke-width="0.711111" stroke-linecap="round" stroke-linejoin="round"/>
<path d="M105.841 65.9517C105.375 65.7186 103.355 64.4756 103.432 63.6987C103.51 62.9218 104.287 61.8383 105.068 62.5334C105.849 63.2285 107.861 64.7086 107.861 64.7086C107.861 64.7086 109.026 66.107 111.197 65.1175" stroke="#263238" stroke-width="0.711111" stroke-linecap="round" stroke-linejoin="round"/>
<path d="M105.996 51.3603C105.996 51.3603 107.002 49.4221 108.401 49.2668C109.799 49.1114 110.494 50.6652 110.494 50.9023" stroke="#263238" stroke-width="0.711111" stroke-linecap="round" stroke-linejoin="round"/>
<path d="M113.753 52.3711C113.753 52.3711 115.151 54.0802 118.251 54.2356" stroke="#263238" stroke-width="0.711111" stroke-linecap="round" stroke-linejoin="round"/>
<path d="M128.346 54.6989C128.575 50.5855 127.88 45.7729 124.31 42.9025C120.741 40.0321 115.928 39.0998 110.817 41.6758C110.817 41.6758 110.441 41.9007 109.852 42.3464C110.632 43.3535 111.608 44.1917 112.721 44.8102C113.835 45.4287 115.062 45.8147 116.329 45.9446C121.137 46.4884 122.691 45.5357 124.098 46.5661C125.504 47.5965 125.88 50.3688 124.871 51.297C123.861 52.2251 121.456 52.1515 121.301 53.5499C121.146 54.9483 123.554 58.2849 123.243 59.3684C122.932 60.452 122.311 61.1553 122.777 61.6214C123.243 62.0875 124.564 61.466 124.871 61.3106C125.177 61.1553 125.018 63.0362 124.11 65.2237C126.13 61.9812 128.183 57.5652 128.346 54.6989Z" fill="#263238" stroke="#263238" stroke-width="0.711111" stroke-linecap="round" stroke-linejoin="round"/>
<path d="M121.824 63.2335C121.824 63.2335 123.767 60.6738 125.161 60.6738C126.555 60.6738 127.258 62.9227 126.482 65.0203C125.705 67.1179 124.31 68.2015 122.601 68.3569C120.892 68.5122 120.741 67.6577 120.896 67.1302" fill="#D9D9D9"/>
<path d="M121.824 63.2335C121.824 63.2335 123.767 60.6738 125.161 60.6738C126.555 60.6738 127.258 62.9227 126.482 65.0203C125.705 67.1179 124.31 68.2015 122.601 68.3569C120.892 68.5122 120.741 67.6577 120.896 67.1302" stroke="#263238" stroke-width="0.711111" stroke-linecap="round" stroke-linejoin="round"/>
<path d="M120.896 110.186C120.896 110.186 123.067 115.693 124.621 117.546C126.175 119.398 130.346 122.432 133.854 124.762C137.362 127.093 138.045 132.29 137.501 134.228C136.957 136.166 135.33 137.72 131.683 136.714C128.035 135.708 125.083 131.358 122.057 126.856C119.032 122.354 117.016 119.018 116.783 118.784C116.55 118.551 120.896 110.186 120.896 110.186Z" fill="#D9D9D9"/>
<path opacity="0.15" d="M137.501 134.242C138.045 132.304 137.346 127.103 133.854 124.776C130.362 122.45 126.171 119.42 124.621 117.559C123.071 115.699 120.896 110.199 120.896 110.199C120.896 110.199 116.533 118.577 116.783 118.798C117.032 119.019 119.032 122.368 122.057 126.87L122.164 127.029L124.265 123.827C124.265 123.827 135.567 132.525 135.857 134.553C135.935 135.209 135.935 135.872 135.857 136.528C136.683 136.01 137.274 135.19 137.501 134.242Z" fill="black"/>
<path d="M120.896 110.186C120.896 110.186 123.067 115.693 124.621 117.546C126.175 119.398 130.346 122.432 133.854 124.762C137.362 127.093 138.045 132.29 137.501 134.228C136.957 136.166 135.33 137.72 131.683 136.714C128.035 135.708 125.083 131.358 122.057 126.856C119.032 122.354 117.016 119.018 116.783 118.784C116.55 118.551 120.896 110.186 120.896 110.186Z" stroke="#263238" stroke-width="0.711111" stroke-linecap="round" stroke-linejoin="round"/>
<path d="M123.223 170.096C123.223 170.096 125.247 170.837 129.434 169.209C135.399 166.895 144.914 159.056 144.914 159.056C140.317 159.888 135.609 159.888 131.012 159.056C123.321 157.674 119.183 155.605 119.183 155.605L111.095 167.148L123.223 170.096Z" fill="white"/>
<path d="M123.223 170.096C123.223 170.096 125.247 170.837 129.434 169.209C135.399 166.895 144.914 159.056 144.914 159.056C140.317 159.888 135.609 159.888 131.012 159.056C123.321 157.674 119.183 155.605 119.183 155.605L111.095 167.148L123.223 170.096Z" fill="#0CCE6B"/>
<path opacity="0.5" d="M123.223 170.096C123.223 170.096 125.247 170.837 129.434 169.209C135.399 166.895 144.914 159.056 144.914 159.056C140.317 159.888 135.609 159.888 131.012 159.056C123.321 157.674 119.183 155.605 119.183 155.605L111.095 167.148L123.223 170.096Z" fill="white"/>
<path d="M123.223 170.096C123.223 170.096 125.247 170.837 129.434 169.209C135.399 166.895 144.914 159.056 144.914 159.056C140.317 159.888 135.609 159.888 131.012 159.056C123.321 157.674 119.183 155.605 119.183 155.605L111.095 167.148L123.223 170.096Z" stroke="#263238" stroke-width="0.711111" stroke-linecap="round" stroke-linejoin="round"/>
<path d="M112.289 165.959L127.859 168.572" stroke="#263238" stroke-width="0.711111" stroke-linecap="round" stroke-linejoin="round"/>
<path d="M130.018 167.211L114.562 164.369" stroke="#263238" stroke-width="0.711111" stroke-linecap="round" stroke-linejoin="round"/>
<path d="M131.609 165.845L118.312 163.457" stroke="#263238" stroke-width="0.711111" stroke-linecap="round" stroke-linejoin="round"/>
<path d="M133.882 164.14L121.268 161.756" stroke="#263238" stroke-width="0.711111" stroke-linecap="round" stroke-linejoin="round"/>
<path d="M134.68 162.664L122.744 160.619" stroke="#263238" stroke-width="0.711111" stroke-linecap="round" stroke-linejoin="round"/>
<path d="M129.928 149.599C129.928 149.599 133.159 149.08 131.384 153.913C129.61 158.746 123.816 163.007 123.125 166.458C122.434 169.909 123.223 170.105 123.223 170.105L113.168 167.938C113.168 167.938 113.957 160.443 119.477 154.727C124.997 149.01 129.928 149.599 129.928 149.599Z" fill="white"/>
<path opacity="0.15" d="M129.928 149.599C129.928 149.599 133.159 149.08 131.384 153.913C129.61 158.746 123.816 163.007 123.125 166.458C122.434 169.909 123.223 170.105 123.223 170.105L113.168 167.938C113.168 167.938 113.957 160.443 119.477 154.727C124.997 149.01 129.928 149.599 129.928 149.599Z" fill="black"/>
<path d="M129.928 149.599C129.928 149.599 133.159 149.08 131.384 153.913C129.61 158.746 123.816 163.007 123.125 166.458C122.434 169.909 123.223 170.105 123.223 170.105L113.168 167.938C113.168 167.938 113.957 160.443 119.477 154.727C124.997 149.01 129.928 149.599 129.928 149.599Z" stroke="#263238" stroke-width="0.711111" stroke-linecap="round" stroke-linejoin="round"/>
<path d="M110.306 173.368C110.306 173.368 111.982 172.959 113.659 170.506C115.335 168.052 119.081 160.251 122.139 156.109C125.198 151.967 129.928 149.603 129.928 149.603L105.968 146.941C105.968 146.941 96.2074 157.883 92.8545 161.731C89.5016 165.579 89.1091 169.124 91.4766 170.011C93.844 170.898 101.335 171.785 103.306 172.084C105.277 172.382 108.629 173.654 110.306 173.368Z" fill="white"/>
<path d="M110.306 173.368C110.306 173.368 111.982 172.959 113.659 170.506C115.335 168.052 119.081 160.251 122.139 156.109C125.198 151.967 129.928 149.603 129.928 149.603L105.968 146.941C105.968 146.941 96.2074 157.883 92.8545 161.731C89.5016 165.579 89.1091 169.124 91.4766 170.011C93.844 170.898 101.335 171.785 103.306 172.084C105.277 172.382 108.629 173.654 110.306 173.368Z" fill="#0CCE6B"/>
<path opacity="0.5" d="M110.306 173.368C110.306 173.368 111.982 172.959 113.659 170.506C115.335 168.052 119.081 160.251 122.139 156.109C125.198 151.967 129.928 149.603 129.928 149.603L105.968 146.941C105.968 146.941 96.2074 157.883 92.8545 161.731C89.5016 165.579 89.1091 169.124 91.4766 170.011C93.844 170.898 101.335 171.785 103.306 172.084C105.277 172.382 108.629 173.654 110.306 173.368Z" fill="white"/>
<path d="M110.306 173.368C110.306 173.368 111.982 172.959 113.659 170.506C115.335 168.052 119.081 160.251 122.139 156.109C125.198 151.967 129.928 149.603 129.928 149.603L105.968 146.941C105.968 146.941 96.2074 157.883 92.8545 161.731C89.5016 165.579 89.1091 169.124 91.4766 170.011C93.844 170.898 101.335 171.785 103.306 172.084C105.277 172.382 108.629 173.654 110.306 173.368Z" stroke="#263238" stroke-width="0.711111" stroke-linecap="round" stroke-linejoin="round"/>
<path d="M111.79 169.974L90.2499 165.395" stroke="#263238" stroke-width="0.711111" stroke-linecap="round" stroke-linejoin="round"/>
<path d="M113.148 167.263L91.6033 162.68" stroke="#263238" stroke-width="0.711111" stroke-linecap="round" stroke-linejoin="round"/>
<path d="M114.845 164.208L93.3002 159.629" stroke="#263238" stroke-width="0.711111" stroke-linecap="round" stroke-linejoin="round"/>
<path d="M116.713 160.476L95.1688 155.896" stroke="#263238" stroke-width="0.711111" stroke-linecap="round" stroke-linejoin="round"/>
<path d="M118.745 156.744L97.2051 152.164" stroke="#263238" stroke-width="0.711111" stroke-linecap="round" stroke-linejoin="round"/>
<path d="M120.442 153.693L98.8979 149.113" stroke="#263238" stroke-width="0.711111" stroke-linecap="round" stroke-linejoin="round"/>
<path d="M122.99 151.316L101.445 146.736" stroke="#263238" stroke-width="0.711111" stroke-linecap="round" stroke-linejoin="round"/>
<path d="M117.506 145.563C117.506 145.563 119.477 145.563 118.394 148.719C117.31 151.876 110.899 160.168 108.83 165.774C106.761 171.38 110.306 173.367 110.306 173.367C110.306 173.367 109.517 174.549 97.982 172.087C86.4472 169.626 79.0545 169.323 78.3553 167.352C77.6561 165.382 82.1989 160.058 83.8753 155.818C85.5518 151.578 89.792 141.621 89.792 141.621C89.792 141.621 106.556 144.892 110.101 145.17C113.647 145.448 117.506 145.563 117.506 145.563Z" fill="white"/>
<path opacity="0.15" d="M117.506 145.564C117.506 145.564 113.659 145.465 110.11 145.155C106.561 144.844 89.8001 141.605 89.8001 141.605C89.8001 141.605 85.56 151.562 83.8835 155.802C83.2142 157.361 82.4226 158.865 81.5161 160.3L108.503 166.805C108.593 166.47 108.703 166.122 108.838 165.759C110.907 160.14 117.314 151.856 118.402 148.704C119.49 145.551 117.506 145.564 117.506 145.564Z" fill="black"/>
<path d="M117.506 145.563C117.506 145.563 119.477 145.563 118.394 148.719C117.31 151.876 110.899 160.168 108.83 165.774C106.761 171.38 110.306 173.367 110.306 173.367C110.306 173.367 109.517 174.549 97.982 172.087C86.4472 169.626 79.0545 169.323 78.3553 167.352C77.6561 165.382 82.1989 160.058 83.8753 155.818C85.5518 151.578 89.792 141.621 89.792 141.621C89.792 141.621 106.556 144.892 110.101 145.17C113.647 145.448 117.506 145.563 117.506 145.563Z" stroke="#263238" stroke-width="0.711111" stroke-linecap="round" stroke-linejoin="round"/>
<path d="M104.982 158.076C104.982 158.076 104.982 158.866 107.943 155.316C110.903 151.767 117.506 145.564 117.506 145.564L87.0401 138.961C87.0401 138.961 78.3635 147.924 77.28 149.302C76.1964 150.68 75.4032 151.076 78.2654 152.36C81.1276 153.644 95.4387 155.222 98.4768 156.007C101.515 156.793 104.982 158.076 104.982 158.076Z" fill="white"/>
<path d="M104.982 158.076C104.982 158.076 104.982 158.866 107.943 155.316C110.903 151.767 117.506 145.564 117.506 145.564L87.0401 138.961C87.0401 138.961 78.3635 147.924 77.28 149.302C76.1964 150.68 75.4032 151.076 78.2654 152.36C81.1276 153.644 95.4387 155.222 98.4768 156.007C101.515 156.793 104.982 158.076 104.982 158.076Z" fill="#0CCE6B"/>
<path opacity="0.5" d="M104.982 158.076C104.982 158.076 104.982 158.866 107.943 155.316C110.903 151.767 117.506 145.564 117.506 145.564L87.0401 138.961C87.0401 138.961 78.3635 147.924 77.28 149.302C76.1964 150.68 75.4032 151.076 78.2654 152.36C81.1276 153.644 95.4387 155.222 98.4768 156.007C101.515 156.793 104.982 158.076 104.982 158.076Z" fill="white"/>
<path d="M104.982 158.076C104.982 158.076 104.982 158.866 107.943 155.316C110.903 151.767 117.506 145.564 117.506 145.564L87.0401 138.961C87.0401 138.961 78.3635 147.924 77.28 149.302C76.1964 150.68 75.4032 151.076 78.2654 152.36C81.1276 153.644 95.4387 155.222 98.4768 156.007C101.515 156.793 104.982 158.076 104.982 158.076Z" stroke="#263238" stroke-width="0.711111" stroke-linecap="round" stroke-linejoin="round"/>
<path d="M107.288 154.935C107.288 154.935 88.8883 152.776 83.7608 151.75" stroke="#263238" stroke-width="0.711111" stroke-linecap="round" stroke-linejoin="round"/>
<path d="M108.879 151.978C108.879 151.978 97.9657 150.841 93.4188 149.934" stroke="#263238" stroke-width="0.711111" stroke-linecap="round" stroke-linejoin="round"/>
<path d="M111.267 148.909C111.267 148.909 97.8552 146.525 94.4451 145.613" stroke="#263238" stroke-width="0.711111" stroke-linecap="round" stroke-linejoin="round"/>
<path d="M113.426 146.525L97.3973 142.771" stroke="#263238" stroke-width="0.711111" stroke-linecap="round" stroke-linejoin="round"/>
<path d="M116.705 107.536C116.705 107.536 116.026 109.756 115.041 117.153C114.055 124.55 112.587 133.026 110.604 139.335C108.621 145.644 104.786 154.816 104.491 155.997C104.411 156.357 104.413 156.73 104.498 157.088C104.583 157.447 104.749 157.781 104.982 158.066C104.982 158.066 101.139 157.477 90.2908 156.292C79.443 155.106 68.7996 149.786 69.094 149.095C69.3884 148.404 76.4908 141.404 80.5429 132.331C84.595 123.258 90.8959 100.482 90.8959 100.482C90.8959 100.482 103.715 106.497 107.558 106.894C111.402 107.29 116.705 107.536 116.705 107.536Z" fill="white"/>
<path opacity="0.15" d="M115.041 117.162C116.026 109.766 116.705 107.545 116.705 107.545C116.705 107.545 111.389 107.3 107.546 106.907C103.702 106.515 90.8836 100.496 90.8836 100.496C90.8836 100.496 86.3653 116.807 82.5259 127.319L111.626 135.791C113.118 129.652 114.258 123.432 115.041 117.162Z" fill="black"/>
<path d="M116.705 107.536C116.705 107.536 116.026 109.756 115.041 117.153C114.055 124.55 112.587 133.026 110.604 139.335C108.621 145.644 104.786 154.816 104.491 155.997C104.411 156.357 104.413 156.73 104.498 157.088C104.583 157.447 104.749 157.781 104.982 158.066C104.982 158.066 101.139 157.477 90.2908 156.292C79.443 155.106 68.7996 149.786 69.094 149.095C69.3884 148.404 76.4908 141.404 80.5429 132.331C84.595 123.258 90.8959 100.482 90.8959 100.482C90.8959 100.482 103.715 106.497 107.558 106.894C111.402 107.29 116.705 107.536 116.705 107.536Z" stroke="#263238" stroke-width="0.711111" stroke-linecap="round" stroke-linejoin="round"/>
<path d="M119.265 103.127C119.265 103.127 121.203 103.589 121.747 106.619C122.29 109.649 122.213 117.172 121.98 118.104C121.747 119.037 115.307 119.887 112.514 120.214C109.721 120.541 111.193 119.515 112.436 115.091C113.679 110.667 114.996 107.408 115.617 106.48C116.239 105.551 117.556 102.195 119.265 103.127Z" fill="#D9D9D9" stroke="#263238" stroke-width="0.711111" stroke-linecap="round" stroke-linejoin="round"/>
<path opacity="0.15" d="M117.163 106.584C117.163 106.584 117.674 117.411 117.887 118.609C118.099 119.807 110.784 120.351 110.784 120.351L115.282 107.741" fill="black"/>
<path d="M117.322 122.667C117.322 122.667 114.685 124.532 113.753 124.998C112.821 125.464 107.857 123.444 107.701 122.745C107.546 122.046 108.556 122.201 109.95 122.336C111.344 122.471 113.753 122.88 114.763 122.491C115.773 122.103 117.555 121.751 117.322 122.667Z" fill="#D9D9D9" stroke="#263238" stroke-width="0.711111" stroke-linecap="round" stroke-linejoin="round"/>
<path d="M120.741 119.42C120.741 119.42 119.886 121.751 118.799 122.446C117.711 123.141 113.291 123.844 111.349 123.673C109.406 123.501 107.779 122.274 108.245 121.579C108.711 120.884 108.167 121.268 110.805 120.88C113.442 120.491 116.705 120.258 118.099 119.792C118.952 119.517 119.845 119.391 120.741 119.42Z" fill="#D9D9D9" stroke="#263238" stroke-width="0.711111" stroke-linecap="round" stroke-linejoin="round"/>
<path d="M120.97 114.84C120.97 114.84 118.022 116.394 115.617 117.481C114.829 117.822 114.024 118.121 113.205 118.377C112.228 118.496 111.245 118.559 110.261 118.565C108.556 118.565 107.546 118.414 107.546 119.109C107.546 120.172 109.406 120.744 110.196 120.961C112.939 121.746 116.173 120.785 118.938 120.331C119.537 120.247 120.119 120.069 120.663 119.804C122.098 119.105 122.368 117.399 122.135 116.39L122.041 116.267" fill="#D9D9D9"/>
<path d="M120.97 114.84C120.97 114.84 118.022 116.394 115.617 117.481C114.829 117.822 114.024 118.121 113.205 118.377C112.228 118.496 111.245 118.559 110.261 118.565C108.556 118.565 107.546 118.414 107.546 119.109C107.546 120.172 109.406 120.744 110.196 120.961C112.939 121.746 116.173 120.785 118.938 120.331C119.537 120.247 120.119 120.069 120.663 119.804C122.098 119.105 122.368 117.399 122.135 116.39L122.041 116.267" stroke="#263238" stroke-width="0.711111" stroke-linecap="round" stroke-linejoin="round"/>
<path d="M116.705 107.538C116.705 107.538 114.918 112.583 112.902 118.79C111.607 122.866 110.544 127.012 109.717 131.208C109.717 131.208 108.323 130.431 97.9247 126.862C87.5266 123.292 74.4872 118.946 74.4872 118.946C74.4872 118.946 84.2637 107.46 86.345 101.952C88.4262 96.4447 89.5261 97.4546 94.3387 99.3151C99.1514 101.175 105.824 104.59 109.701 104.978C113.577 105.367 116.705 106.773 116.705 107.538Z" fill="white"/>
<path d="M116.705 107.538C116.705 107.538 114.918 112.583 112.902 118.79C111.607 122.866 110.544 127.012 109.717 131.208C109.717 131.208 108.323 130.431 97.9247 126.862C87.5266 123.292 74.4872 118.946 74.4872 118.946C74.4872 118.946 84.2637 107.46 86.345 101.952C88.4262 96.4447 89.5261 97.4546 94.3387 99.3151C99.1514 101.175 105.824 104.59 109.701 104.978C113.577 105.367 116.705 106.773 116.705 107.538Z" fill="#0CCE6B"/>
<path opacity="0.5" d="M116.705 107.538C116.705 107.538 114.918 112.583 112.902 118.79C111.607 122.866 110.544 127.012 109.717 131.208C109.717 131.208 108.323 130.431 97.9247 126.862C87.5266 123.292 74.4872 118.946 74.4872 118.946C74.4872 118.946 84.2637 107.46 86.345 101.952C88.4262 96.4447 89.5261 97.4546 94.3387 99.3151C99.1514 101.175 105.824 104.59 109.701 104.978C113.577 105.367 116.705 106.773 116.705 107.538Z" fill="white"/>
<path d="M116.705 107.538C116.705 107.538 114.918 112.583 112.902 118.79C111.607 122.866 110.544 127.012 109.717 131.208C109.717 131.208 108.323 130.431 97.9247 126.862C87.5266 123.292 74.4872 118.946 74.4872 118.946C74.4872 118.946 84.2637 107.46 86.345 101.952C88.4262 96.4447 89.5261 97.4546 94.3387 99.3151C99.1514 101.175 105.824 104.59 109.701 104.978C113.577 105.367 116.705 106.773 116.705 107.538Z" stroke="#263238" stroke-width="0.711111" stroke-linecap="round" stroke-linejoin="round"/>
<path d="M109.104 124.02L83.0779 115.041" stroke="#263238" stroke-width="0.711111" stroke-linecap="round" stroke-linejoin="round"/>
<path d="M110.195 120.961L85.1224 112.312" stroke="#263238" stroke-width="0.711111" stroke-linecap="round" stroke-linejoin="round"/>
<path d="M111.267 117.882L86.942 109.471" stroke="#263238" stroke-width="0.711111" stroke-linecap="round" stroke-linejoin="round"/>
<path d="M112.175 114.132L89.4444 106.4" stroke="#263238" stroke-width="0.711111" stroke-linecap="round" stroke-linejoin="round"/>
<path d="M112.857 110.609L91.7137 103.105" stroke="#263238" stroke-width="0.711111" stroke-linecap="round" stroke-linejoin="round"/>
<path d="M81.7123 115.383C82.2769 115.383 82.7346 115.051 82.7346 114.642C82.7346 114.234 82.2769 113.902 81.7123 113.902C81.1478 113.902 80.6901 114.234 80.6901 114.642C80.6901 115.051 81.1478 115.383 81.7123 115.383Z" stroke="#263238" stroke-width="0.711111" stroke-linecap="round" stroke-linejoin="round"/>
<path d="M83.8712 112.656C84.4358 112.656 84.8934 112.325 84.8934 111.916C84.8934 111.507 84.4358 111.176 83.8712 111.176C83.3067 111.176 82.849 111.507 82.849 111.916C82.849 112.325 83.3067 112.656 83.8712 112.656Z" stroke="#263238" stroke-width="0.711111" stroke-linecap="round" stroke-linejoin="round"/>
<path d="M85.5762 110.097C86.1408 110.097 86.5985 109.766 86.5985 109.357C86.5985 108.949 86.1408 108.617 85.5762 108.617C85.0117 108.617 84.554 108.949 84.554 109.357C84.554 109.766 85.0117 110.097 85.5762 110.097Z" stroke="#263238" stroke-width="0.711111" stroke-linecap="round" stroke-linejoin="round"/>
<path d="M87.3959 106.572C87.9604 106.572 88.4181 106.241 88.4181 105.832C88.4181 105.423 87.9604 105.092 87.3959 105.092C86.8313 105.092 86.3737 105.423 86.3737 105.832C86.3737 106.241 86.8313 106.572 87.3959 106.572Z" stroke="#263238" stroke-width="0.711111" stroke-linecap="round" stroke-linejoin="round"/>
<path d="M90.8059 102.426C90.8059 102.017 90.348 101.686 89.7837 101.686C89.2194 101.686 88.7615 102.017 88.7615 102.426C88.7615 102.835 89.2194 103.162 89.7837 103.162C90.348 103.162 90.8059 102.83 90.8059 102.426Z" stroke="#263238" stroke-width="0.711111" stroke-linecap="round" stroke-linejoin="round"/>
<path d="M118.954 105.528C118.954 105.528 116.55 109.72 114.996 110.341C113.442 110.963 108.944 110.263 109.271 109.253C109.599 108.244 111.831 107.933 113.307 105.982C114.783 104.032 116.1 101.485 117.494 101.869C118.888 102.253 119.903 103.885 119.98 104.429" fill="#D9D9D9"/>
<path d="M118.954 105.528C118.954 105.528 116.55 109.72 114.996 110.341C113.442 110.963 108.944 110.263 109.271 109.253C109.599 108.244 111.831 107.933 113.307 105.982C114.783 104.032 116.1 101.485 117.494 101.869C118.888 102.253 119.903 103.885 119.98 104.429" stroke="#263238" stroke-width="0.711111" stroke-linecap="round" stroke-linejoin="round"/>
<path d="M79.0668 77.3623C79.0668 77.3623 79.5329 85.2743 79.5329 85.585C79.5329 85.8958 66.7265 99.246 63.7784 102.349C60.8303 105.453 60.7527 108.013 61.4478 109.955C62.1429 111.897 64.5553 114.69 66.7265 114.996C68.8977 115.303 71.3061 113.136 73.4773 108.323C75.6485 103.511 83.4133 88.9992 84.2638 87.4496C85.1143 85.8999 87.126 84.5015 87.126 84.5015C87.126 84.5015 89.2195 83.4138 90.1518 81.8601C91.084 80.3063 92.8668 77.2069 94.8049 75.7267C96.7431 74.2465 97.6672 73.8622 96.8248 73.4001C95.9825 72.9381 93.2552 73.9399 92.4783 74.4837C91.7015 75.0275 89.9964 76.4259 89.9964 76.4259C89.9964 76.4259 88.5203 74.2506 88.4426 72.3902C88.3649 70.5297 88.8311 67.8679 87.7475 68.4117C86.6639 68.9555 84.8567 72.9626 82.5464 75.1052C80.3834 77.1292 79.0668 76.1969 79.0668 77.3623Z" fill="#D9D9D9"/>
<path opacity="0.15" d="M96.8371 73.4021C95.9825 72.936 93.2675 73.9418 92.4906 74.4857C91.7137 75.0295 90.0086 76.4279 90.0086 76.4279C90.0086 76.4279 88.5325 74.2526 88.4548 72.3921C88.3771 70.5317 88.8433 67.8698 87.7597 68.4137C86.6762 68.9575 84.8689 72.9646 82.5587 75.1072C81.9607 75.6919 81.242 76.1385 80.4529 76.4156L80.0644 78.0512C80.0644 78.0512 81.6591 79.0693 81.6591 80.3737C81.6591 81.678 83.7035 82.1114 83.8303 83.4158C83.9571 84.7201 82.9635 86.1676 82.2356 87.0385C81.5078 87.9095 69.7727 108.194 66.7306 110.66C65.4589 111.686 63.7866 111.78 62.2696 111.543C63.3409 113.158 65.0991 114.786 66.7265 115.015C68.8977 115.325 71.306 113.154 73.4772 108.342C75.6484 103.529 83.4132 89.0176 84.2637 87.4679C85.1142 85.9182 87.1259 84.5198 87.1259 84.5198C87.1259 84.5198 89.2195 83.4321 90.1517 81.8784C91.084 80.3246 92.8667 77.2252 94.8049 75.745C96.743 74.2649 97.6916 73.8641 96.8371 73.4021Z" fill="black"/>
<path d="M79.0668 77.3623C79.0668 77.3623 79.5329 85.2743 79.5329 85.585C79.5329 85.8958 66.7265 99.246 63.7784 102.349C60.8303 105.453 60.7527 108.013 61.4478 109.955C62.1429 111.897 64.5553 114.69 66.7265 114.996C68.8977 115.303 71.3061 113.136 73.4773 108.323C75.6485 103.511 83.4133 88.9992 84.2638 87.4496C85.1143 85.8999 87.126 84.5015 87.126 84.5015C87.126 84.5015 89.2195 83.4138 90.1518 81.8601C91.084 80.3063 92.8668 77.2069 94.8049 75.7267C96.7431 74.2465 97.6672 73.8622 96.8248 73.4001C95.9825 72.9381 93.2552 73.9399 92.4783 74.4837C91.7015 75.0275 89.9964 76.4259 89.9964 76.4259C89.9964 76.4259 88.5203 74.2506 88.4426 72.3902C88.3649 70.5297 88.8311 67.8679 87.7475 68.4117C86.6639 68.9555 84.8567 72.9626 82.5464 75.1052C80.3834 77.1292 79.0668 76.1969 79.0668 77.3623Z" stroke="#263238" stroke-width="0.711111" stroke-linecap="round" stroke-linejoin="round"/>
<path d="M102.966 68.8235L103.003 68.8848C103.062 68.988 103.099 69.1018 103.113 69.2195C103.128 69.3373 103.118 69.4567 103.086 69.5708C103.054 69.6849 102.999 69.7915 102.925 69.8843C102.851 69.9771 102.76 70.0544 102.656 70.1115L87.9029 78.2893L85.0488 78.9149L86.9992 76.6701L101.752 68.4923C101.957 68.3766 102.2 68.3465 102.427 68.4085C102.654 68.4705 102.848 68.6196 102.966 68.8235Z" fill="#0CCE6B" stroke="#263238" stroke-width="0.711111" stroke-linecap="round" stroke-linejoin="round"/>
<path d="M87.9029 78.2901L88.0092 78.2288L87.1014 76.6055L86.9951 76.6627L85.0488 78.9075L87.9029 78.2901Z" fill="white" stroke="#263238" stroke-width="0.711111" stroke-linecap="round" stroke-linejoin="round"/>
<path d="M101.134 70.9542L102.656 70.1038C102.759 70.0466 102.851 69.9694 102.925 69.8766C102.999 69.7838 103.053 69.6772 103.086 69.5631C103.118 69.449 103.127 69.3296 103.113 69.2118C103.099 69.094 103.062 68.9803 103.003 68.8771L102.966 68.8158C102.909 68.7118 102.832 68.6202 102.739 68.5464C102.646 68.4725 102.54 68.4178 102.426 68.3855C102.312 68.3531 102.192 68.3438 102.074 68.358C101.957 68.3722 101.843 68.4097 101.74 68.4682L100.219 69.3187L101.134 70.9542Z" fill="white" stroke="#263238" stroke-width="0.711111" stroke-linecap="round" stroke-linejoin="round"/>
<path d="M100.429 69.2175L99.6153 69.6719L100.524 71.2999L101.338 70.8455L100.429 69.2175Z" fill="white" stroke="#263238" stroke-width="0.711111" stroke-linecap="round" stroke-linejoin="round"/>
<path d="M85.0488 78.9067L86.3941 78.6123L85.9647 77.8477L85.0488 78.9067Z" fill="white" stroke="#263238" stroke-width="0.711111" stroke-linecap="round" stroke-linejoin="round"/>
<path d="M82.5587 79.2207C82.5587 79.2207 82.3256 81.0852 80.8495 81.1588" stroke="#263238" stroke-width="0.711111" stroke-linecap="round" stroke-linejoin="round"/>
<path d="M86.7457 69.9185C86.7457 69.9185 89.4608 74.265 90.393 75.1195C91.3253 75.9741 92.4865 75.8187 92.7196 75.0418C92.9527 74.265 91.403 72.6376 90.7815 70.5441C90.16 68.4506 89.9269 67.8291 88.6839 68.1398C87.4408 68.4506 86.8234 69.1539 86.7457 69.9185Z" fill="#D9D9D9" stroke="#263238" stroke-width="0.711111" stroke-linecap="round" stroke-linejoin="round"/>
<path d="M91.0922 75.4964C91.0922 75.4964 86.2059 73.0144 85.1183 71.7714C84.0306 70.5284 82.7917 72.1598 82.5586 72.9981C82.3256 73.8363 86.1282 75.4023 87.911 76.0238C89.6938 76.6453 90.7732 76.8784 91.3252 76.2569C91.8772 75.6354 91.0922 75.4964 91.0922 75.4964Z" fill="#D9D9D9" stroke="#263238" stroke-width="0.711111" stroke-linecap="round" stroke-linejoin="round"/>
<path d="M82.8694 73.7109C82.8694 73.7109 81.2338 74.2548 80.9272 74.9376C80.6205 75.6204 81.471 76.1029 83.0248 77.0352C84.5785 77.9675 87.0605 78.2619 87.6779 77.9634C88.2953 77.6649 88.3771 77.0352 87.5225 76.7367C86.668 76.4382 83.5686 74.1771 82.8694 73.7109Z" fill="#D9D9D9" stroke="#263238" stroke-width="0.711111" stroke-linecap="round" stroke-linejoin="round"/>
<path d="M81.471 76.1191C81.471 76.1191 79.6883 75.653 79.1444 76.6629C78.6006 77.6729 79.2221 78.2985 81.0826 78.8341C82.943 79.3698 85.7398 79.7664 85.8175 78.7565C85.8952 77.7465 84.3414 77.5911 83.0248 77.0514C81.7082 76.5116 81.471 76.1191 81.471 76.1191Z" fill="#D9D9D9" stroke="#263238" stroke-width="0.711111" stroke-linecap="round" stroke-linejoin="round"/>
<path d="M37.8099 142.121C37.8099 142.121 36.9185 139.218 34.3098 138.176C32.4984 137.448 30.4172 137.64 28.5404 137.967C25.0444 138.572 21.9982 139.963 18.678 141.152C18.678 141.152 20.0927 140.629 25.899 143.459C28.0374 144.501 30.4826 145.311 32.9278 145.254C34.8945 145.213 37.9039 144.652 37.8099 142.121Z" fill="#0CCE6B"/>
<path d="M38.1248 133.591C38.1248 133.591 38.1248 130.553 35.9168 128.803C34.3916 127.577 32.339 127.168 30.4499 126.935C26.9253 126.526 23.6051 126.955 20.0887 127.135C20.0887 127.135 21.5934 127.045 26.3365 131.433C28.0825 133.048 30.1882 134.528 32.5475 135.182C34.4407 135.705 37.4828 136.041 38.1248 133.591Z" fill="#0CCE6B"/>
<path d="M44.1272 144.869C44.1272 144.869 41.7598 142.967 41.7516 140.162C41.7516 138.212 42.6879 136.343 43.6856 134.72C45.5379 131.694 47.9544 129.372 50.281 126.73C50.281 126.73 49.2751 127.851 49.7658 134.291C49.9457 136.662 49.7944 139.234 48.8417 141.487C48.0771 143.299 46.4456 145.891 44.1272 144.869Z" fill="#0CCE6B"/>
<path d="M52.5176 149.536C52.5176 149.536 52.1824 146.514 54.1532 144.523C55.5271 143.141 57.5143 142.478 59.3665 142.037C62.8176 141.219 66.1664 141.268 69.6828 141.039C69.6828 141.039 68.1781 141.125 63.9584 146.028C62.4087 147.835 60.4869 149.548 58.2339 150.472C56.4266 151.212 53.4376 151.895 52.5176 149.536Z" fill="#0CCE6B"/>
<path d="M51.9656 138.773C51.9656 138.773 48.9562 138.364 47.5088 135.956C46.5029 134.283 46.3557 132.198 46.3761 130.293C46.4129 126.743 47.292 123.509 47.9299 120.07C47.9299 120.07 47.6437 121.546 51.3727 126.821C52.7425 128.767 53.9365 131.049 54.2759 133.47C54.5498 135.395 54.4803 138.458 51.9656 138.773Z" fill="#0CCE6B"/>
<path d="M60.6259 133.367C60.6259 133.367 62.793 135.502 65.5816 135.179C67.5157 134.958 69.2616 133.801 70.7582 132.623C73.5468 130.432 75.5708 127.758 77.926 125.141C77.926 125.141 76.9283 126.269 70.476 126.535C68.0963 126.633 65.5694 127.083 63.435 128.293C61.7422 129.262 59.342 131.184 60.6259 133.367Z" fill="#0CCE6B"/>
<path d="M58.1194 131.253C58.1194 131.253 61.1452 131.556 63.116 129.56C64.4858 128.174 65.1196 126.179 65.5489 124.322C66.3462 120.863 66.2481 117.514 66.4403 113.998C66.4403 113.998 66.3708 115.503 61.5091 119.755C59.7181 121.325 58.0253 123.263 57.1258 125.537C56.4266 127.373 55.7519 130.366 58.1194 131.253Z" fill="#0CCE6B"/>
<path d="M47.333 160.678L42.1155 147.839L36.0967 132.992" stroke="#263238" stroke-width="0.888889" stroke-linecap="round" stroke-linejoin="round"/>
<path d="M48.535 158.47L53.7525 140.614L59.3665 129.582" stroke="#263238" stroke-width="0.888889" stroke-linecap="round" stroke-linejoin="round"/>
<path d="M50.5427 151.449L55.756 148.439" stroke="#263238" stroke-width="0.888889" stroke-linecap="round" stroke-linejoin="round"/>
<path d="M53.7524 140.613L51.1437 134.795" stroke="#263238" stroke-width="0.888889" stroke-linecap="round" stroke-linejoin="round"/>
<path d="M57.0154 134.824L63.3818 131.986" stroke="#263238" stroke-width="0.888889" stroke-linecap="round" stroke-linejoin="round"/>
<path d="M43.1173 150.242L45.3253 141.414" stroke="#263238" stroke-width="0.888889" stroke-linecap="round" stroke-linejoin="round"/>
<path d="M40.1937 143.532L35.0948 140.812" stroke="#263238" stroke-width="0.888889" stroke-linecap="round" stroke-linejoin="round"/>
<path d="M52.5381 167.096H43.1296L41.1138 156.461H54.5539L52.5381 167.096Z" fill="#263238" stroke="#263238" stroke-width="0.888889" stroke-linecap="round" stroke-linejoin="round"/>
</svg>
