<svg width="45" height="45" viewBox="0 0 45 45" fill="none" xmlns="http://www.w3.org/2000/svg">
<rect opacity="0.1" width="45" height="45" rx="22.5" fill="#0CCE6B"/>
<path fill-rule="evenodd" clip-rule="evenodd" d="M21.5283 16.1393C21.0256 16.1393 20.5978 16.4886 20.4778 16.9595H24.5148C24.3947 16.4886 23.967 16.1393 23.4643 16.1393H21.5283ZM25.6553 16.9595H27.1411C28.7169 16.9595 30 18.2582 30 19.8531C30 19.8531 29.955 20.5283 29.94 21.4686C29.9385 21.543 29.9025 21.6159 29.8432 21.66C29.4822 21.9265 29.1521 22.1468 29.1221 22.162C27.8764 22.9974 26.429 23.5853 24.8869 23.8777C24.7864 23.8974 24.6873 23.845 24.6363 23.7554C24.2041 23.0065 23.3967 22.5189 22.4962 22.5189C21.6018 22.5189 20.7869 23.0012 20.3419 23.7508C20.2901 23.8389 20.1926 23.8898 20.0928 23.8708C18.5635 23.5777 17.1161 22.9906 15.8779 22.1696L15.1576 21.6683C15.0975 21.6303 15.06 21.562 15.06 21.486C15.0375 21.0987 15 19.8531 15 19.8531C15 18.2582 16.2831 16.9595 17.8589 16.9595H19.3372C19.4797 15.8582 20.4027 15 21.5283 15H23.4642C24.5898 15 25.5128 15.8582 25.6553 16.9595ZM29.745 23.1114L29.715 23.1265C28.1993 24.1443 26.3758 24.8202 24.4624 25.1012C24.1923 25.1392 23.9221 24.9645 23.8471 24.6911C23.682 24.0683 23.1492 23.6582 22.5114 23.6582H22.5039H22.4889C21.8511 23.6582 21.3183 24.0683 21.1532 24.6911C21.0782 24.9645 20.8081 25.1392 20.5379 25.1012C18.6245 24.8202 16.8011 24.1443 15.2853 23.1265C15.2778 23.119 15.2028 23.0734 15.1427 23.1114C15.0752 23.1493 15.0752 23.2405 15.0752 23.2405L15.1277 27.1139C15.1277 28.7088 16.4034 29.9999 17.9791 29.9999H27.0137C28.5895 29.9999 29.8651 28.7088 29.8651 27.1139L29.9251 23.2405C29.9251 23.2405 29.9251 23.1493 29.8576 23.1114C29.8201 23.0886 29.775 23.0962 29.745 23.1114ZM23.0592 26.2936C23.0592 26.6125 22.8115 26.8632 22.4964 26.8632C22.1887 26.8632 21.9336 26.6125 21.9336 26.2936V25.3138C21.9336 25.0024 22.1887 24.7442 22.4964 24.7442C22.8115 24.7442 23.0592 25.0024 23.0592 25.3138V26.2936Z" fill="#0CCE6B"/>
</svg>
