<svg width="21" height="21" viewBox="0 0 21 21" fill="none" xmlns="http://www.w3.org/2000/svg">
<path d="M10.222 2.16663C14.8245 2.16663 18.5553 5.89746 18.5553 10.5C18.5553 15.1025 14.8245 18.8333 10.222 18.8333C8.27908 18.8361 6.39672 18.1573 4.90285 16.915L4.69952 16.7408L5.45118 15.1558C6.5245 16.2559 7.94495 16.9513 9.47211 17.1244C10.9993 17.2975 12.5393 16.9376 13.8316 16.1057C15.1239 15.2737 16.0891 14.0208 16.5637 12.559C17.0384 11.0971 16.9933 9.51623 16.4363 8.0838C15.8792 6.65136 14.8443 5.45541 13.5067 4.69835C12.1692 3.94129 10.6111 3.66964 9.0963 3.92937C7.58147 4.1891 6.2029 4.96427 5.19394 6.12365C4.18497 7.28304 3.60759 8.75544 3.55952 10.2916L3.55535 10.5H5.63868L3.38368 15.2633C2.40803 13.8667 1.88604 12.2036 1.88868 10.5C1.88868 5.89746 5.61952 2.16663 10.222 2.16663ZM11.0553 5.49996V7.16663H13.1387V8.83329H8.55535C8.45123 8.8331 8.35081 8.8719 8.27386 8.94205C8.19692 9.0122 8.14903 9.10861 8.13962 9.21231C8.13021 9.31601 8.15997 9.41947 8.22303 9.50232C8.28609 9.58517 8.37789 9.64141 8.48035 9.65996L8.55535 9.66663H11.8887C12.4412 9.66663 12.9711 9.88612 13.3618 10.2768C13.7525 10.6675 13.972 11.1974 13.972 11.75C13.972 12.3025 13.7525 12.8324 13.3618 13.2231C12.9711 13.6138 12.4412 13.8333 11.8887 13.8333H11.0553V15.5H9.38868V13.8333H7.30535V12.1666H11.8887C11.9928 12.1668 12.0932 12.128 12.1702 12.0579C12.2471 11.9877 12.295 11.8913 12.3044 11.7876C12.3138 11.6839 12.2841 11.5805 12.221 11.4976C12.1579 11.4147 12.0661 11.3585 11.9637 11.34L11.8887 11.3333H8.55535C8.00281 11.3333 7.47291 11.1138 7.08221 10.7231C6.69151 10.3324 6.47201 9.80249 6.47201 9.24996C6.47201 8.69743 6.69151 8.16752 7.08221 7.77682C7.47291 7.38612 8.00281 7.16663 8.55535 7.16663H9.38868V5.49996H11.0553Z" fill="#1D3557"/>
</svg>
