<svg width="21" height="21" viewBox="0 0 21 21" fill="none" xmlns="http://www.w3.org/2000/svg">
<g clip-path="url(#clip0_504_2929)">
<path d="M10.222 2.16699C14.8245 2.16699 18.5553 5.89783 18.5553 10.5003C18.5553 15.1028 14.8245 18.8337 10.222 18.8337C8.27908 18.8365 6.39672 18.1576 4.90285 16.9153L4.69952 16.7412L5.45118 15.1562C6.5245 16.2562 7.94495 16.9517 9.47211 17.1248C10.9993 17.2979 12.5393 16.938 13.8316 16.106C15.1239 15.2741 16.0891 14.0211 16.5637 12.5593C17.0384 11.0975 16.9933 9.51659 16.4363 8.08416C15.8792 6.65173 14.8443 5.45577 13.5067 4.69872C12.1692 3.94166 10.6111 3.67001 9.0963 3.92974C7.58147 4.18947 6.2029 4.96463 5.19394 6.12402C4.18497 7.28341 3.60759 8.7558 3.55952 10.292L3.55535 10.5003H5.63868L3.38368 15.2637C2.40803 13.8671 1.88604 12.204 1.88868 10.5003C1.88868 5.89783 5.61952 2.16699 10.222 2.16699ZM11.0553 5.50033V7.16699H13.1387V8.83366H8.55535C8.45123 8.83347 8.35081 8.87227 8.27386 8.94242C8.19692 9.01257 8.14903 9.10898 8.13962 9.21268C8.13021 9.31637 8.15997 9.41983 8.22303 9.50269C8.28609 9.58554 8.37789 9.64178 8.48035 9.66033L8.55535 9.66699H11.8887C12.4412 9.66699 12.9711 9.88649 13.3618 10.2772C13.7525 10.6679 13.972 11.1978 13.972 11.7503C13.972 12.3029 13.7525 12.8328 13.3618 13.2235C12.9711 13.6142 12.4412 13.8337 11.8887 13.8337H11.0553V15.5003H9.38868V13.8337H7.30535V12.167H11.8887C11.9928 12.1672 12.0932 12.1284 12.1702 12.0582C12.2471 11.9881 12.295 11.8917 12.3044 11.788C12.3138 11.6843 12.2841 11.5808 12.221 11.498C12.1579 11.4151 12.0661 11.3589 11.9637 11.3403L11.8887 11.3337H8.55535C8.00281 11.3337 7.47291 11.1142 7.08221 10.7235C6.69151 10.3328 6.47201 9.80286 6.47201 9.25033C6.47201 8.69779 6.69151 8.16789 7.08221 7.77719C7.47291 7.38649 8.00281 7.16699 8.55535 7.16699H9.38868V5.50033H11.0553Z" fill="#E63946"/>
</g>
<defs>
<clipPath id="clip0_504_2929">
<rect width="20" height="20" fill="white" transform="translate(0.222656 0.5)"/>
</clipPath>
</defs>
</svg>
