<svg width="59" height="59" viewBox="0 0 59 59" fill="none" xmlns="http://www.w3.org/2000/svg">
<path d="M17.0625 48.9383V26.9399H20.9625C21.2469 26.9399 21.5312 26.9708 21.8156 27.0325C22.1 27.0943 22.3844 27.165 22.6688 27.2446L39.5484 33.5212C40.1172 33.7243 40.5746 34.0899 40.9207 34.618C41.2669 35.1462 41.4391 35.6946 41.4375 36.2633C41.4375 37.1165 41.1426 37.8071 40.5527 38.3352C39.9628 38.8633 39.2827 39.1274 38.5125 39.1274H32.1141C31.9109 39.1274 31.759 39.1177 31.6582 39.0982C31.5575 39.0787 31.4251 39.0275 31.2609 38.9446L27.3609 37.4212L26.5687 39.7977L31.2609 41.443C31.3422 41.4837 31.4641 41.5145 31.6266 41.5357C31.7891 41.5568 31.9312 41.5665 32.0531 41.5649H48.75C50.05 41.5649 51.1875 42.0321 52.1625 42.9665C53.1375 43.9008 53.625 45.0587 53.625 46.4399L34.1859 53.7524L17.0625 48.9383ZM2.4375 53.7524V26.9399H12.1875V53.7524H2.4375ZM35.3438 19.6274H37.7812V17.1899H35.3438V19.6274ZM30.4688 19.6274H32.9062V17.1899H30.4688V19.6274ZM35.3438 24.5024H37.7812V22.0649H35.3438V24.5024ZM30.4688 24.5024H32.9062V22.0649H30.4688V24.5024ZM45.1547 34.2524C44.5859 32.9118 43.7734 31.7337 42.7172 30.718C41.6609 29.7024 40.3609 28.9102 38.8172 28.3415L21.9375 22.0649H17.0625V15.9712L34.125 3.78366L51.1875 15.9712V34.2524H45.1547Z" fill="white"/>
</svg>
