<svg width="32" height="32" viewBox="0 0 32 32" fill="none" xmlns="http://www.w3.org/2000/svg">
<path d="M27.3333 18.6662C26.9797 18.6662 26.6406 18.8067 26.3905 19.0567C26.1405 19.3068 26 19.6459 26 19.9995V25.3329C26 25.6865 25.8595 26.0256 25.6095 26.2757C25.3594 26.5257 25.0203 26.6662 24.6667 26.6662H6C5.64638 26.6662 5.30724 26.5257 5.05719 26.2757C4.80714 26.0256 4.66667 25.6865 4.66667 25.3329V12.5462L12.5067 20.3995C13.2567 21.1486 14.2733 21.5694 15.3333 21.5694C16.3933 21.5694 17.41 21.1486 18.16 20.3995L20.3467 18.2129C20.5977 17.9618 20.7388 17.6213 20.7388 17.2662C20.7388 16.9111 20.5977 16.5706 20.3467 16.3195C20.0956 16.0685 19.7551 15.9274 19.4 15.9274C19.0449 15.9274 18.7044 16.0685 18.4533 16.3195L16.2667 18.5062C16.0174 18.7505 15.6823 18.8873 15.3333 18.8873C14.9843 18.8873 14.6492 18.7505 14.4 18.5062L6.54667 10.6662H15.3333C15.687 10.6662 16.0261 10.5257 16.2761 10.2757C16.5262 10.0256 16.6667 9.68649 16.6667 9.33287C16.6667 8.97925 16.5262 8.64011 16.2761 8.39006C16.0261 8.14001 15.687 7.99954 15.3333 7.99954H6C4.93913 7.99954 3.92172 8.42096 3.17157 9.17111C2.42143 9.92126 2 10.9387 2 11.9995V25.3329C2 26.3937 2.42143 27.4112 3.17157 28.1613C3.92172 28.9114 4.93913 29.3329 6 29.3329H24.6667C25.7275 29.3329 26.7449 28.9114 27.4951 28.1613C28.2452 27.4112 28.6667 26.3937 28.6667 25.3329V19.9995C28.6667 19.6459 28.5262 19.3068 28.2761 19.0567C28.0261 18.8067 27.687 18.6662 27.3333 18.6662ZM29.6133 7.05287L25.6133 3.05287C25.4865 2.93148 25.337 2.83633 25.1733 2.77287C24.8487 2.63951 24.4846 2.63951 24.16 2.77287C23.9963 2.83633 23.8468 2.93148 23.72 3.05287L19.72 7.05287C19.4689 7.30394 19.3279 7.64447 19.3279 7.99954C19.3279 8.35461 19.4689 8.69513 19.72 8.9462C19.9711 9.19728 20.3116 9.33833 20.6667 9.33833C21.0217 9.33833 21.3623 9.19728 21.6133 8.9462L23.3333 7.21287V14.6662C23.3333 15.0198 23.4738 15.359 23.7239 15.609C23.9739 15.8591 24.313 15.9995 24.6667 15.9995C25.0203 15.9995 25.3594 15.8591 25.6095 15.609C25.8595 15.359 26 15.0198 26 14.6662V7.21287L27.72 8.9462C27.844 9.07117 27.9914 9.17037 28.1539 9.23806C28.3164 9.30575 28.4907 9.3406 28.6667 9.3406C28.8427 9.3406 29.017 9.30575 29.1794 9.23806C29.3419 9.17037 29.4894 9.07117 29.6133 8.9462C29.7383 8.82225 29.8375 8.67478 29.9052 8.51231C29.9729 8.34983 30.0077 8.17555 30.0077 7.99954C30.0077 7.82352 29.9729 7.64925 29.9052 7.48677C29.8375 7.32429 29.7383 7.17682 29.6133 7.05287Z" fill="white"/>
</svg>
