<svg width="129" height="70" viewBox="0 0 129 70" fill="none" xmlns="http://www.w3.org/2000/svg">
<g clip-path="url(#clip0_195_9124)">
<path d="M17.5 26.6291L7.21435 32.3866L9.51123 20.825L0.856018 12.8216L12.5621 11.4333L17.5 0.729126L22.4379 11.4333L34.1439 12.8216L25.4887 20.825L27.7856 32.3866L17.5 26.6291ZM17.5 23.2866L23.6935 26.7531L22.3096 19.7925L27.5202 14.9727L20.4721 14.137L17.5 7.69267L14.5279 14.1385L7.47977 14.9727L12.6904 19.7925L11.3064 26.7531L17.5 23.2866Z" fill="#E63946"/>
</g>
<g clip-path="url(#clip1_195_9124)">
<path d="M64.1666 26.6291L53.881 32.3866L56.1779 20.825L47.5226 12.8216L59.2287 11.4333L64.1666 0.729126L69.1045 11.4333L80.8106 12.8216L72.1554 20.825L74.4522 32.3866L64.1666 26.6291ZM64.1666 23.2866L70.3601 26.7531L68.9762 19.7925L74.1868 14.9727L67.1387 14.137L64.1666 7.69267L61.1945 14.1385L54.1464 14.9727L59.357 19.7925L57.9731 26.7531L64.1666 23.2866Z" fill="#E63946"/>
</g>
<g clip-path="url(#clip2_195_9124)">
<path d="M110.833 26.6291L100.548 32.3866L102.845 20.825L94.1894 12.8216L105.895 11.4333L110.833 0.729126L115.771 11.4333L127.477 12.8216L118.822 20.825L121.119 32.3866L110.833 26.6291ZM110.833 23.2866L117.027 26.7531L115.643 19.7925L120.854 14.9727L113.805 14.137L110.833 7.69267L107.861 14.1385L100.813 14.9727L106.024 19.7925L104.64 26.7531L110.833 23.2866Z" fill="#E63946"/>
</g>
<g clip-path="url(#clip3_195_9124)">
<path d="M40.8334 61.6291L30.5477 67.3866L32.8446 55.825L24.1894 47.8216L35.8954 46.4333L40.8334 35.7291L45.7713 46.4333L57.4773 47.8216L48.8221 55.825L51.119 67.3866L40.8334 61.6291ZM40.8334 58.2866L47.0269 61.7531L45.6429 54.7925L50.8536 49.9727L43.8054 49.137L40.8334 42.6927L37.8613 49.1385L30.8131 49.9727L36.0238 54.7925L34.6398 61.7531L40.8334 58.2866Z" fill="#E63946"/>
</g>
<g clip-path="url(#clip4_195_9124)">
<path d="M87.5 61.6291L77.2144 67.3866L79.5112 55.825L70.856 47.8216L82.5621 46.4333L87.5 35.7291L92.4379 46.4333L104.144 47.8216L95.4887 55.825L97.7856 67.3866L87.5 61.6291ZM87.5 58.2866L93.6935 61.7531L92.3096 54.7925L97.5202 49.9727L90.4721 49.137L87.5 42.6927L84.5279 49.1385L77.4798 49.9727L82.6904 54.7925L81.3064 61.7531L87.5 58.2866Z" fill="#E63946"/>
</g>
<defs>
<clipPath id="clip0_195_9124">
<rect width="35" height="35" fill="white"/>
</clipPath>
<clipPath id="clip1_195_9124">
<rect width="35" height="35" fill="white" transform="translate(46.6666)"/>
</clipPath>
<clipPath id="clip2_195_9124">
<rect width="35" height="35" fill="white" transform="translate(93.3334)"/>
</clipPath>
<clipPath id="clip3_195_9124">
<rect width="35" height="35" fill="white" transform="translate(23.3334 35)"/>
</clipPath>
<clipPath id="clip4_195_9124">
<rect width="35" height="35" fill="white" transform="translate(70 35)"/>
</clipPath>
</defs>
</svg>
