<svg width="88" height="88" viewBox="0 0 88 88" fill="none" xmlns="http://www.w3.org/2000/svg">
<path d="M43.9994 87.3332C20.0664 87.3332 0.666016 67.9328 0.666016 43.9998C0.666016 20.0668 20.0664 0.666504 43.9994 0.666504C67.9324 0.666504 87.3327 20.0668 87.3327 43.9998C87.3327 67.9328 67.9324 87.3332 43.9994 87.3332ZM43.9994 78.6665C53.1935 78.6665 62.0111 75.0141 68.5124 68.5129C75.0136 62.0116 78.666 53.194 78.666 43.9998C78.666 34.8057 75.0136 25.9881 68.5124 19.4868C62.0111 12.9855 53.1935 9.33317 43.9994 9.33317C34.8052 9.33317 25.9876 12.9855 19.4863 19.4868C12.9851 25.9881 9.33268 34.8057 9.33268 43.9998C9.33268 53.194 12.9851 62.0116 19.4863 68.5129C25.9876 75.0141 34.8052 78.6665 43.9994 78.6665ZM39.679 61.3332L21.2927 42.9468L27.42 36.8195L39.679 49.0785L64.1884 24.5648L70.32 30.6922L39.679 61.3332Z" fill="#0CCE6B"/>
</svg>
