<svg width="21" height="21" viewBox="0 0 21 21" fill="none" xmlns="http://www.w3.org/2000/svg">
<path d="M17.8658 7.01925C17.8658 7.77591 15.6867 8.38124 12.9929 8.38124C12.4784 8.38124 11.9942 8.35097 11.5099 8.32071C11.4494 8.32071 8.5438 7.95751 8.51353 7.92724M17.8658 9.65258C17.8658 10.379 15.8077 10.9843 13.2351 11.0146M17.8658 12.2855C17.8658 13.0119 15.8379 13.587 13.2956 13.6475M8.12003 5.0216V8.10876M17.8658 5.0216V12.2553M17.8658 4.59795C17.8658 5.35461 15.6866 5.95993 12.9929 5.95993C10.2992 5.95993 8.12003 5.35461 8.12003 4.59795C8.12003 3.84129 10.2992 3.23596 12.9929 3.23596C15.6866 3.23596 17.8658 3.84129 17.8658 4.59795ZM13.1745 12.9516C13.1745 15.6151 11.0256 17.764 8.36216 17.764C5.72899 17.764 3.58008 15.6151 3.58008 12.9516C3.58008 10.2882 5.72899 8.13927 8.39243 8.13927C11.0256 8.16953 13.1745 10.3184 13.1745 12.9516ZM8.11996 16.0689V15.3122C7.69623 15.3122 7.24224 15.1609 6.96984 14.9793L7.15144 14.4648C7.42384 14.6464 7.8173 14.7977 8.24103 14.7977C8.78582 14.7977 9.14902 14.4951 9.14902 14.0713C9.14902 13.6476 8.84635 13.4055 8.30156 13.1633C7.51463 12.8607 7.06064 12.5277 7.06064 11.8619C7.06064 11.2263 7.51463 10.7723 8.21076 10.6512V9.89457H8.66475V10.621C9.11875 10.621 9.42141 10.742 9.63328 10.8934L9.45168 11.3776C9.30035 11.2868 8.99768 11.1355 8.51342 11.1355C7.93836 11.1355 7.7265 11.4684 7.7265 11.7711C7.7265 12.1645 7.9989 12.3461 8.66475 12.6185C9.45168 12.9515 9.84514 13.3147 9.84514 14.0108C9.84514 14.6161 9.42141 15.1609 8.66475 15.282V16.0689H8.11996Z" stroke="#E63946"/>
</svg>
