<svg width="21" height="21" viewBox="0 0 21 21" fill="none" xmlns="http://www.w3.org/2000/svg">
<path d="M13.7938 16.9286V15.5C13.7938 14.7422 13.4928 14.0155 12.957 13.4797C12.4212 12.9439 11.6944 12.6428 10.9367 12.6428H5.22238C4.46462 12.6428 3.73789 12.9439 3.20207 13.4797C2.66625 14.0155 2.36523 14.7422 2.36523 15.5V16.9286M18.0795 16.9286V15.5C18.079 14.8669 17.8683 14.252 17.4805 13.7516C17.0926 13.2513 16.5496 12.894 15.9367 12.7357M13.0795 4.16427C13.6941 4.32163 14.2388 4.67905 14.6278 5.1802C15.0168 5.68135 15.228 6.29772 15.228 6.93213C15.228 7.56653 15.0168 8.1829 14.6278 8.68405C14.2388 9.1852 13.6941 9.54262 13.0795 9.69998M10.9367 6.92855C10.9367 8.50651 9.65748 9.7857 8.07952 9.7857C6.50156 9.7857 5.22238 8.50651 5.22238 6.92855C5.22238 5.3506 6.50156 4.07141 8.07952 4.07141C9.65748 4.07141 10.9367 5.3506 10.9367 6.92855Z" stroke="#1D3557" stroke-width="1.5" stroke-linecap="round" stroke-linejoin="round"/>
</svg>
