<svg width="21" height="21" viewBox="0 0 21 21" fill="none" xmlns="http://www.w3.org/2000/svg">
<path d="M13.7938 16.9284V15.4999C13.7938 14.7421 13.4928 14.0154 12.957 13.4796C12.4212 12.9437 11.6944 12.6427 10.9367 12.6427H5.22238C4.46462 12.6427 3.73789 12.9437 3.20207 13.4796C2.66625 14.0154 2.36523 14.7421 2.36523 15.4999V16.9284M18.0795 16.9284V15.4999C18.079 14.8668 17.8683 14.2518 17.4805 13.7515C17.0926 13.2512 16.5496 12.8938 15.9367 12.7356M13.0795 4.16415C13.6941 4.3215 14.2388 4.67893 14.6278 5.18008C15.0168 5.68123 15.228 6.2976 15.228 6.932C15.228 7.56641 15.0168 8.18277 14.6278 8.68392C14.2388 9.18507 13.6941 9.5425 13.0795 9.69986M10.9367 6.92843C10.9367 8.50639 9.65748 9.78557 8.07952 9.78557C6.50156 9.78557 5.22238 8.50639 5.22238 6.92843C5.22238 5.35048 6.50156 4.07129 8.07952 4.07129C9.65748 4.07129 10.9367 5.35048 10.9367 6.92843Z" stroke="#E63946" stroke-width="1.5" stroke-linecap="round" stroke-linejoin="round"/>
</svg>
